<svg width="100" height="34" viewBox="0 0 100 34" fill="none" xmlns="http://www.w3.org/2000/svg">
<path d="M11.3182 34H0.227983V1.27273H11.5419C14.7912 1.27273 17.5824 1.92791 19.9155 3.23828C22.2592 4.538 24.0597 6.40767 25.3168 8.8473C26.5739 11.2869 27.2024 14.206 27.2024 17.6044C27.2024 21.0135 26.5685 23.9432 25.3008 26.3935C24.0437 28.8437 22.2273 30.7241 19.8516 32.0344C17.4865 33.3448 14.642 34 11.3182 34ZM6.15661 28.8704H11.0305C13.3104 28.8704 15.212 28.4549 16.7354 27.6239C18.2589 26.7823 19.4041 25.5305 20.1712 23.8686C20.9382 22.196 21.3217 20.108 21.3217 17.6044C21.3217 15.1009 20.9382 13.0234 20.1712 11.3722C19.4041 9.71023 18.2695 8.46911 16.7674 7.64879C15.2759 6.81783 13.4222 6.40234 11.2063 6.40234H6.15661V28.8704ZM46.6922 15.2553V20.0174H31.9585V15.2553H46.6922ZM50.8051 34V29.7173L62.167 18.5792C63.2536 17.4819 64.1592 16.5071 64.8836 15.6548C65.6081 14.8026 66.1514 13.9769 66.5136 13.1779C66.8758 12.3789 67.0569 11.5266 67.0569 10.6211C67.0569 9.58771 66.8225 8.70348 66.3538 7.96839C65.885 7.22266 65.2405 6.64737 64.4202 6.24254C63.5999 5.83771 62.6677 5.6353 61.6237 5.6353C60.5477 5.6353 59.6049 5.85902 58.7952 6.30646C57.9855 6.74325 57.357 7.36648 56.9095 8.17614C56.4728 8.9858 56.2544 9.94993 56.2544 11.0685H50.6134C50.6134 8.99112 51.0875 7.18537 52.0356 5.65128C52.9838 4.11719 54.2888 2.92933 55.9507 2.08771C57.6233 1.24609 59.5409 0.825283 61.7036 0.825283C63.8982 0.825283 65.8264 1.23544 67.4884 2.05575C69.1503 2.87606 70.4394 4 71.3556 5.42756C72.2824 6.85511 72.7458 8.48508 72.7458 10.3175C72.7458 11.5426 72.5115 12.7464 72.0427 13.929C71.574 15.1115 70.7483 16.4219 69.5658 17.8601C68.3939 19.2983 66.748 21.0401 64.6279 23.0856L58.987 28.8224V29.0462H73.2412V34H50.8051ZM79.1879 34L93.1065 6.45028V6.22656H76.9507V1.27273H99.2429V6.33842L85.3402 34H79.1879Z" fill="#696969"/>
</svg>
