<svg width="134" height="123" viewBox="0 0 134 123" fill="none" xmlns="http://www.w3.org/2000/svg">
<g filter="url(#filter0_f_3771_29)">
<path d="M106.25 14.8284H14.0097C10.1384 14.8284 7 17.8845 7 21.6544V109.127C7 112.896 10.1384 115.953 14.0097 115.953H106.25C110.121 115.953 113.26 112.896 113.26 109.127V21.6544C113.26 17.8845 110.121 14.8284 106.25 14.8284Z" fill="white" stroke="#767676" stroke-opacity="0.7" stroke-width="5" stroke-miterlimit="10"/>
<path d="M7 33.3748H113.26" stroke="#767676" stroke-opacity="0.7" stroke-width="5" stroke-miterlimit="10"/>
<path d="M27.0945 23.6733C26.0175 24.2761 24.8043 24.6166 23.5169 24.6166C19.1099 24.6166 15.5385 20.6325 15.5385 15.7202C15.5385 10.8079 19.1099 6.8208 23.5169 6.8208C27.5989 6.8208 30.9661 10.2413 31.4365 14.6534" fill="white"/>
<path d="M27.0945 23.6733C26.0175 24.2761 24.8043 24.6166 23.5169 24.6166C19.1099 24.6166 15.5385 20.6325 15.5385 15.7202C15.5385 10.8079 19.1099 6.8208 23.5169 6.8208C27.5989 6.8208 30.9661 10.2413 31.4365 14.6534" stroke="#767676" stroke-opacity="0.7" stroke-width="5" stroke-miterlimit="10" stroke-linecap="round"/>
<path d="M50.615 23.673C49.538 24.2757 48.3248 24.6163 47.0374 24.6163C42.6304 24.6163 39.059 20.6322 39.059 15.7199C39.059 10.8076 42.6304 6.82349 47.0374 6.82349C51.1194 6.82349 54.4865 10.244 54.957 14.6561" fill="white"/>
<path d="M50.615 23.673C49.538 24.2757 48.3248 24.6163 47.0374 24.6163C42.6304 24.6163 39.059 20.6322 39.059 15.7199C39.059 10.8076 42.6304 6.82349 47.0374 6.82349C51.1194 6.82349 54.4865 10.244 54.957 14.6561" stroke="#767676" stroke-opacity="0.7" stroke-width="5" stroke-miterlimit="10" stroke-linecap="round"/>
<path d="M74.1354 23.673C73.0584 24.2757 71.8453 24.6163 70.5578 24.6163C66.1508 24.6163 62.5794 20.6322 62.5794 15.7199C62.5794 10.8076 66.1508 6.82349 70.5578 6.82349C74.6398 6.82349 78.007 10.244 78.4774 14.6561" fill="white"/>
<path d="M74.1354 23.673C73.0584 24.2757 71.8453 24.6163 70.5578 24.6163C66.1508 24.6163 62.5794 20.6322 62.5794 15.7199C62.5794 10.8076 66.1508 6.82349 70.5578 6.82349C74.6398 6.82349 78.007 10.244 78.4774 14.6561" stroke="#767676" stroke-opacity="0.7" stroke-width="5" stroke-miterlimit="10" stroke-linecap="round"/>
<path d="M97.6589 23.673C96.5819 24.2757 95.3688 24.6163 94.0813 24.6163C89.6744 24.6163 86.103 20.6322 86.103 15.7199C86.103 10.8076 89.6744 6.82349 94.0813 6.82349C98.1634 6.82349 101.531 10.244 102.001 14.6561" fill="white"/>
<path d="M97.6589 23.673C96.5819 24.2757 95.3688 24.6163 94.0813 24.6163C89.6744 24.6163 86.103 20.6322 86.103 15.7199C86.103 10.8076 89.6744 6.82349 94.0813 6.82349C98.1634 6.82349 101.531 10.244 102.001 14.6561" stroke="#767676" stroke-opacity="0.7" stroke-width="5" stroke-miterlimit="10" stroke-linecap="round"/>
<g opacity="0.7">
<mask id="path-11-outside-1_3771_29" maskUnits="userSpaceOnUse" x="25.0782" y="58.2046" width="75" height="26" fill="black">
<rect fill="white" x="25.0782" y="58.2046" width="75" height="26"/>
<path d="M33.6236 82.2046H26.2302V60.3864H33.7728C35.939 60.3864 37.7998 60.8232 39.3552 61.6968C40.9177 62.5633 42.118 63.8097 42.956 65.4361C43.7941 67.0625 44.2131 69.0086 44.2131 71.2742C44.2131 73.5469 43.7905 75.5 42.9454 77.1336C42.1073 78.7671 40.8964 80.0206 39.3126 80.8942C37.7359 81.7678 35.8395 82.2046 33.6236 82.2046ZM30.1826 78.7848H33.4319C34.9518 78.7848 36.2195 78.5079 37.2351 77.9539C38.2508 77.3928 39.0143 76.5583 39.5256 75.4503C40.037 74.3353 40.2927 72.9432 40.2927 71.2742C40.2927 69.6052 40.037 68.2202 39.5256 67.1194C39.0143 66.0114 38.2579 65.184 37.2565 64.6371C36.2621 64.0831 35.0263 63.8062 33.5491 63.8062H30.1826V78.7848ZM53.7227 78.7103V63.966H57.0678V78.7103H53.7227ZM48.0231 73.0107V69.6655H62.7674V73.0107H48.0231ZM66.8996 82.2046L76.1787 63.8381V63.689H65.4082V60.3864H80.2697V63.7635L71.0012 82.2046H66.8996ZM90.5303 82.5029C88.9962 82.5029 87.6325 82.2401 86.4393 81.7145C85.2533 81.189 84.3158 80.4574 83.6268 79.5199C82.9379 78.5824 82.5722 77.4993 82.5295 76.2706H86.5352C86.5707 76.8601 86.766 77.375 87.1212 77.8154C87.4763 78.2486 87.9486 78.586 88.5381 78.8275C89.1276 79.0689 89.7881 79.1897 90.5196 79.1897C91.3009 79.1897 91.9933 79.0547 92.597 78.7848C93.2007 78.5079 93.673 78.1243 94.0139 77.6343C94.3548 77.1442 94.5217 76.5796 94.5146 75.9404C94.5217 75.2799 94.3513 74.6975 94.0033 74.1932C93.6553 73.689 93.151 73.2948 92.4905 73.0107C91.8371 72.7266 91.0487 72.5846 90.1254 72.5846H88.1972V69.5377H90.1254C90.8854 69.5377 91.5494 69.4063 92.1176 69.1435C92.6929 68.8807 93.1439 68.5114 93.4706 68.0356C93.7973 67.5526 93.9571 66.9951 93.95 66.363C93.9571 65.7451 93.8186 65.2089 93.5345 64.7543C93.2575 64.2927 92.8634 63.934 92.352 63.6783C91.8477 63.4226 91.2547 63.2948 90.5729 63.2948C89.9053 63.2948 89.2874 63.4155 88.7192 63.657C88.151 63.8985 87.6929 64.2429 87.3449 64.6904C86.9969 65.1307 86.8122 65.6563 86.7909 66.2671H82.9876C83.016 65.0455 83.3676 63.9731 84.0423 63.0498C84.7241 62.1194 85.6332 61.3949 86.7696 60.8765C87.906 60.3509 89.1808 60.0881 90.5942 60.0881C92.0501 60.0881 93.3143 60.3615 94.3868 60.9084C95.4663 61.4482 96.3009 62.1762 96.8903 63.0924C97.4798 64.0086 97.7746 65.0206 97.7746 66.1286C97.7817 67.3573 97.4195 68.3871 96.6879 69.2181C95.9635 70.049 95.0118 70.5924 93.8328 70.8481V71.0185C95.3669 71.2316 96.5423 71.7998 97.3591 72.7231C98.183 73.6392 98.5913 74.7792 98.5842 76.1428C98.5842 77.3644 98.2362 78.4581 97.5402 79.424C96.8513 80.3829 95.8996 81.1357 94.6851 81.6826C93.4777 82.2294 92.0928 82.5029 90.5303 82.5029Z"/>
</mask>
<path d="M33.6236 82.2046H26.2302V60.3864H33.7728C35.939 60.3864 37.7998 60.8232 39.3552 61.6968C40.9177 62.5633 42.118 63.8097 42.956 65.4361C43.7941 67.0625 44.2131 69.0086 44.2131 71.2742C44.2131 73.5469 43.7905 75.5 42.9454 77.1336C42.1073 78.7671 40.8964 80.0206 39.3126 80.8942C37.7359 81.7678 35.8395 82.2046 33.6236 82.2046ZM30.1826 78.7848H33.4319C34.9518 78.7848 36.2195 78.5079 37.2351 77.9539C38.2508 77.3928 39.0143 76.5583 39.5256 75.4503C40.037 74.3353 40.2927 72.9432 40.2927 71.2742C40.2927 69.6052 40.037 68.2202 39.5256 67.1194C39.0143 66.0114 38.2579 65.184 37.2565 64.6371C36.2621 64.0831 35.0263 63.8062 33.5491 63.8062H30.1826V78.7848ZM53.7227 78.7103V63.966H57.0678V78.7103H53.7227ZM48.0231 73.0107V69.6655H62.7674V73.0107H48.0231ZM66.8996 82.2046L76.1787 63.8381V63.689H65.4082V60.3864H80.2697V63.7635L71.0012 82.2046H66.8996ZM90.5303 82.5029C88.9962 82.5029 87.6325 82.2401 86.4393 81.7145C85.2533 81.189 84.3158 80.4574 83.6268 79.5199C82.9379 78.5824 82.5722 77.4993 82.5295 76.2706H86.5352C86.5707 76.8601 86.766 77.375 87.1212 77.8154C87.4763 78.2486 87.9486 78.586 88.5381 78.8275C89.1276 79.0689 89.7881 79.1897 90.5196 79.1897C91.3009 79.1897 91.9933 79.0547 92.597 78.7848C93.2007 78.5079 93.673 78.1243 94.0139 77.6343C94.3548 77.1442 94.5217 76.5796 94.5146 75.9404C94.5217 75.2799 94.3513 74.6975 94.0033 74.1932C93.6553 73.689 93.151 73.2948 92.4905 73.0107C91.8371 72.7266 91.0487 72.5846 90.1254 72.5846H88.1972V69.5377H90.1254C90.8854 69.5377 91.5494 69.4063 92.1176 69.1435C92.6929 68.8807 93.1439 68.5114 93.4706 68.0356C93.7973 67.5526 93.9571 66.9951 93.95 66.363C93.9571 65.7451 93.8186 65.2089 93.5345 64.7543C93.2575 64.2927 92.8634 63.934 92.352 63.6783C91.8477 63.4226 91.2547 63.2948 90.5729 63.2948C89.9053 63.2948 89.2874 63.4155 88.7192 63.657C88.151 63.8985 87.6929 64.2429 87.3449 64.6904C86.9969 65.1307 86.8122 65.6563 86.7909 66.2671H82.9876C83.016 65.0455 83.3676 63.9731 84.0423 63.0498C84.7241 62.1194 85.6332 61.3949 86.7696 60.8765C87.906 60.3509 89.1808 60.0881 90.5942 60.0881C92.0501 60.0881 93.3143 60.3615 94.3868 60.9084C95.4663 61.4482 96.3009 62.1762 96.8903 63.0924C97.4798 64.0086 97.7746 65.0206 97.7746 66.1286C97.7817 67.3573 97.4195 68.3871 96.6879 69.2181C95.9635 70.049 95.0118 70.5924 93.8328 70.8481V71.0185C95.3669 71.2316 96.5423 71.7998 97.3591 72.7231C98.183 73.6392 98.5913 74.7792 98.5842 76.1428C98.5842 77.3644 98.2362 78.4581 97.5402 79.424C96.8513 80.3829 95.8996 81.1357 94.6851 81.6826C93.4777 82.2294 92.0928 82.5029 90.5303 82.5029Z" fill="#696969" fill-opacity="0.7"/>
<path d="M26.2302 82.2046H25.2302V83.2046H26.2302V82.2046ZM26.2302 60.3864V59.3864H25.2302V60.3864H26.2302ZM39.3552 61.6968L38.8655 62.5687L38.8702 62.5713L39.3552 61.6968ZM42.956 65.4361L42.0671 65.8942L42.956 65.4361ZM42.9454 77.1336L42.0572 76.674L42.0556 76.6771L42.9454 77.1336ZM39.3126 80.8942L38.8296 80.0186L38.8279 80.0195L39.3126 80.8942ZM30.1826 78.7848H29.1826V79.7848H30.1826V78.7848ZM37.2351 77.9539L37.714 78.8318L37.7187 78.8292L37.2351 77.9539ZM39.5256 75.4503L40.4336 75.8694L40.4346 75.8672L39.5256 75.4503ZM39.5256 67.1194L38.6177 67.5384L38.6187 67.5406L39.5256 67.1194ZM37.2565 64.6371L36.7697 65.5107L36.7772 65.5148L37.2565 64.6371ZM30.1826 63.8062V62.8062H29.1826V63.8062H30.1826ZM33.6236 81.2046H26.2302V83.2046H33.6236V81.2046ZM27.2302 82.2046V60.3864H25.2302V82.2046H27.2302ZM26.2302 61.3864H33.7728V59.3864H26.2302V61.3864ZM33.7728 61.3864C35.804 61.3864 37.4886 61.7953 38.8655 62.5687L39.8449 60.8249C38.111 59.8511 36.0739 59.3864 33.7728 59.3864V61.3864ZM38.8702 62.5713C40.2555 63.3395 41.3173 64.439 42.0671 65.8942L43.845 64.9781C42.9187 63.1804 41.5799 61.787 39.8401 60.8222L38.8702 62.5713ZM42.0671 65.8942C42.8168 67.3491 43.2131 69.1306 43.2131 71.2742H45.2131C45.2131 68.8865 44.7714 66.7759 43.845 64.9781L42.0671 65.8942ZM43.2131 71.2742C43.2131 73.4241 42.8136 75.2122 42.0572 76.674L43.8335 77.5931C44.7675 75.7879 45.2131 73.6698 45.2131 71.2742H43.2131ZM42.0556 76.6771C41.307 78.1364 40.2363 79.2427 38.8296 80.0186L39.7955 81.7699C41.5564 80.7986 42.9076 79.3978 43.8351 77.59L42.0556 76.6771ZM38.8279 80.0195C37.4299 80.7941 35.7085 81.2046 33.6236 81.2046V83.2046C35.9706 83.2046 38.0418 82.7415 39.7972 81.7689L38.8279 80.0195ZM30.1826 79.7848H33.4319V77.7848H30.1826V79.7848ZM33.4319 79.7848C35.0683 79.7848 36.5126 79.4871 37.714 78.8318L36.7563 77.076C35.9265 77.5286 34.8352 77.7848 33.4319 77.7848V79.7848ZM37.7187 78.8292C38.9308 78.1596 39.8379 77.1601 40.4336 75.8694L38.6177 75.0313C38.1907 75.9565 37.5707 76.626 36.7516 77.0786L37.7187 78.8292ZM40.4346 75.8672C41.0235 74.5831 41.2927 73.0381 41.2927 71.2742H39.2927C39.2927 72.8483 39.0505 74.0874 38.6167 75.0335L40.4346 75.8672ZM41.2927 71.2742C41.2927 69.511 41.0237 67.9707 40.4326 66.6981L38.6187 67.5406C39.0503 68.4697 39.2927 69.6993 39.2927 71.2742H41.2927ZM40.4336 66.7003C39.8389 65.4118 38.939 64.4166 37.7357 63.7595L36.7772 65.5148C37.5767 65.9514 38.1896 66.611 38.6177 67.5384L40.4336 66.7003ZM37.7432 63.7635C36.5621 63.1056 35.1473 62.8062 33.5491 62.8062V64.8062C34.9054 64.8062 35.9621 65.0607 36.7698 65.5107L37.7432 63.7635ZM33.5491 62.8062H30.1826V64.8062H33.5491V62.8062ZM29.1826 63.8062V78.7848H31.1826V63.8062H29.1826ZM53.7227 78.7103H52.7227V79.7103H53.7227V78.7103ZM53.7227 63.966V62.966H52.7227V63.966H53.7227ZM57.0678 63.966H58.0678V62.966H57.0678V63.966ZM57.0678 78.7103V79.7103H58.0678V78.7103H57.0678ZM48.0231 73.0107H47.0231V74.0107H48.0231V73.0107ZM48.0231 69.6655V68.6655H47.0231V69.6655H48.0231ZM62.7674 69.6655H63.7674V68.6655H62.7674V69.6655ZM62.7674 73.0107V74.0107H63.7674V73.0107H62.7674ZM54.7227 78.7103V63.966H52.7227V78.7103H54.7227ZM53.7227 64.966H57.0678V62.966H53.7227V64.966ZM56.0678 63.966V78.7103H58.0678V63.966H56.0678ZM57.0678 77.7103H53.7227V79.7103H57.0678V77.7103ZM49.0231 73.0107V69.6655H47.0231V73.0107H49.0231ZM48.0231 70.6655H62.7674V68.6655H48.0231V70.6655ZM61.7674 69.6655V73.0107H63.7674V69.6655H61.7674ZM62.7674 72.0107H48.0231V74.0107H62.7674V72.0107ZM66.8996 82.2046L66.0071 81.7537L65.274 83.2046H66.8996V82.2046ZM76.1787 63.8381L77.0713 64.289L77.1787 64.0764V63.8381H76.1787ZM76.1787 63.689H77.1787V62.689H76.1787V63.689ZM65.4081 63.689H64.4081V64.689H65.4081V63.689ZM65.4081 60.3864V59.3864H64.4081V60.3864H65.4081ZM80.2697 60.3864H81.2697V59.3864H80.2697V60.3864ZM80.2697 63.7635L81.1632 64.2126L81.2697 64.0007V63.7635H80.2697ZM71.0012 82.2046V83.2046H71.6178L71.8947 82.6537L71.0012 82.2046ZM67.7922 82.6555L77.0713 64.289L75.2862 63.3872L66.0071 81.7537L67.7922 82.6555ZM77.1787 63.8381V63.689H75.1787V63.8381H77.1787ZM76.1787 62.689H65.4081V64.689H76.1787V62.689ZM66.4081 63.689V60.3864H64.4081V63.689H66.4081ZM65.4081 61.3864H80.2697V59.3864H65.4081V61.3864ZM79.2697 60.3864V63.7635H81.2697V60.3864H79.2697ZM79.3762 63.3145L70.1077 81.7555L71.8947 82.6537L81.1632 64.2126L79.3762 63.3145ZM71.0012 81.2046H66.8996V83.2046H71.0012V81.2046ZM86.4393 81.7145L86.0342 82.6288L86.0362 82.6297L86.4393 81.7145ZM83.6268 79.5199L84.4327 78.9278L83.6268 79.5199ZM82.5295 76.2706V75.2706H81.4943L81.5301 76.3053L82.5295 76.2706ZM86.5352 76.2706L87.5334 76.2105L87.4768 75.2706H86.5352V76.2706ZM87.1212 77.8154L86.3427 78.4432L86.3478 78.4493L87.1212 77.8154ZM88.5381 78.8275L88.159 79.7528L88.5381 78.8275ZM92.597 78.7848L93.0052 79.6978L93.014 79.6937L92.597 78.7848ZM94.0139 77.6343L93.193 77.0632L94.0139 77.6343ZM94.5146 75.9404L93.5147 75.9296L93.5146 75.9406L93.5147 75.9515L94.5146 75.9404ZM94.0033 74.1932L93.1802 74.7612L94.0033 74.1932ZM92.4905 73.0107L92.0918 73.9278L92.0954 73.9293L92.4905 73.0107ZM88.1972 72.5846H87.1972V73.5846H88.1972V72.5846ZM88.1972 69.5377V68.5377H87.1972V69.5377H88.1972ZM92.1176 69.1435L91.7021 68.2339L91.6978 68.2359L92.1176 69.1435ZM93.4706 68.0356L94.295 68.6016L94.2989 68.5959L93.4706 68.0356ZM93.95 66.363L92.9501 66.3515L92.9499 66.3628L92.9501 66.3742L93.95 66.363ZM93.5345 64.7543L92.677 65.2688L92.6817 65.2766L92.6865 65.2843L93.5345 64.7543ZM92.352 63.6783L91.8997 64.5702L91.9048 64.5727L92.352 63.6783ZM88.7192 63.657L89.1103 64.5773L88.7192 63.657ZM87.3449 64.6904L88.1295 65.3105L88.1342 65.3043L87.3449 64.6904ZM86.7909 66.2671V67.2671H87.7566L87.7903 66.302L86.7909 66.2671ZM82.9876 66.2671L81.9879 66.2438L81.9641 67.2671H82.9876V66.2671ZM84.0423 63.0498L83.2357 62.4587L83.2349 62.4597L84.0423 63.0498ZM86.7696 60.8765L87.1847 61.7863L87.1894 61.7841L86.7696 60.8765ZM94.3868 60.9084L93.9325 61.7993L93.9396 61.8029L94.3868 60.9084ZM96.8903 63.0924L96.0494 63.6335L96.8903 63.0924ZM97.7746 66.1286H96.7746L96.7746 66.1344L97.7746 66.1286ZM96.6879 69.2181L95.9373 68.5573L95.9342 68.5609L96.6879 69.2181ZM93.8328 70.8481L93.6209 69.8708L92.8328 70.0417V70.8481H93.8328ZM93.8328 71.0185H92.8328V71.8892L93.6952 72.009L93.8328 71.0185ZM97.3591 72.7231L96.6101 73.3857L96.6155 73.3917L97.3591 72.7231ZM98.5842 76.1428L97.5842 76.1376V76.1428H98.5842ZM97.5402 79.424L96.7289 78.8394L96.7281 78.8405L97.5402 79.424ZM94.6851 81.6826L94.2745 80.7707L94.2725 80.7717L94.6851 81.6826ZM90.5303 81.5029C89.1107 81.5029 87.8882 81.26 86.8424 80.7994L86.0362 82.6297C87.3769 83.2202 88.8816 83.5029 90.5303 83.5029V81.5029ZM86.8445 80.8003C85.799 80.337 85.0069 79.7092 84.4327 78.9278L82.821 80.1121C83.6247 81.2057 84.7075 82.0409 86.0342 82.6288L86.8445 80.8003ZM84.4327 78.9278C83.8698 78.1618 83.565 77.2756 83.5289 76.236L81.5301 76.3053C81.5793 77.723 82.006 79.003 82.821 80.1121L84.4327 78.9278ZM82.5295 77.2706H86.5352V75.2706H82.5295V77.2706ZM85.537 76.3308C85.5845 77.118 85.8512 77.8336 86.3428 78.4431L87.8996 77.1876C87.6809 76.9165 87.557 76.6023 87.5334 76.2105L85.537 76.3308ZM86.3478 78.4493C86.8218 79.0276 87.4372 79.4572 88.159 79.7528L88.9171 77.9021C88.4599 77.7148 88.1308 77.4696 87.8946 77.1815L86.3478 78.4493ZM88.159 79.7528C88.8853 80.0503 89.6772 80.1897 90.5196 80.1897V78.1897C89.899 78.1897 89.3698 78.0875 88.9171 77.9021L88.159 79.7528ZM90.5196 80.1897C91.4163 80.1897 92.2519 80.0345 93.0051 79.6978L92.1889 77.8719C91.7348 78.0749 91.1854 78.1897 90.5196 78.1897V80.1897ZM93.014 79.6937C93.7614 79.3509 94.3807 78.8581 94.8348 78.2053L93.193 77.0632C92.9653 77.3905 92.6401 77.6649 92.18 77.8759L93.014 79.6937ZM94.8348 78.2053C95.3031 77.5322 95.5238 76.7609 95.5146 75.9293L93.5147 75.9515C93.5197 76.3983 93.4066 76.7562 93.193 77.0632L94.8348 78.2053ZM95.5146 75.9511C95.5237 75.1011 95.3009 74.313 94.8263 73.6252L93.1802 74.7612C93.4016 75.082 93.5198 75.4587 93.5147 75.9296L95.5146 75.9511ZM94.8263 73.6252C94.3541 72.941 93.6884 72.4374 92.8856 72.0921L92.0954 73.9293C92.6136 74.1522 92.9564 74.4369 93.1802 74.7612L94.8263 73.6252ZM92.8892 72.0936C92.0787 71.7412 91.1471 71.5846 90.1254 71.5846V73.5846C90.9504 73.5846 91.5955 73.712 92.0918 73.9278L92.8892 72.0936ZM90.1254 71.5846H88.1972V73.5846H90.1254V71.5846ZM89.1972 72.5846V69.5377H87.1972V72.5846H89.1972ZM88.1972 70.5377H90.1254V68.5377H88.1972V70.5377ZM90.1254 70.5377C90.9999 70.5377 91.8126 70.3864 92.5374 70.0511L91.6978 68.2359C91.2863 68.4262 90.7708 68.5377 90.1254 68.5377V70.5377ZM92.5331 70.0531C93.257 69.7224 93.856 69.241 94.295 68.6016L92.6462 67.4695C92.4318 67.7818 92.1288 68.039 91.7021 68.2339L92.5331 70.0531ZM94.2989 68.5959C94.7493 67.93 94.9591 67.1694 94.9499 66.3517L92.9501 66.3742C92.9551 66.8207 92.8453 67.1752 92.6423 67.4752L94.2989 68.5959ZM94.9499 66.3745C94.9589 65.5952 94.7828 64.8647 94.3825 64.2243L92.6865 65.2843C92.8544 65.553 92.9553 65.895 92.9501 66.3515L94.9499 66.3745ZM94.392 64.2398C94.011 63.6048 93.4696 63.1191 92.7992 62.7839L91.9048 64.5727C92.2571 64.7489 92.504 64.9805 92.677 65.2688L94.392 64.2398ZM92.8042 62.7864C92.1338 62.4465 91.3798 62.2948 90.5729 62.2948V64.2948C91.1296 64.2948 91.5617 64.3988 91.8998 64.5702L92.8042 62.7864ZM90.5729 62.2948C89.7819 62.2948 89.0297 62.4385 88.328 62.7367L89.1103 64.5773C89.545 64.3926 90.0286 64.2948 90.5729 64.2948V62.2948ZM88.328 62.7367C87.6175 63.0386 87.0172 63.4829 86.5555 64.0764L88.1342 65.3043C88.3686 65.003 88.6844 64.7583 89.1103 64.5773L88.328 62.7367ZM86.5603 64.0703C86.0683 64.6929 85.8196 65.4285 85.7915 66.2322L87.7903 66.302C87.8049 65.8841 87.9255 65.5685 88.1294 65.3104L86.5603 64.0703ZM86.7909 65.2671H82.9876V67.2671H86.7909V65.2671ZM83.9874 66.2903C84.0114 65.2581 84.3039 64.3867 84.8497 63.6398L83.2349 62.4597C82.4313 63.5594 82.0207 64.8329 81.9879 66.2438L83.9874 66.2903ZM84.8489 63.6409C85.4214 62.8597 86.1907 62.2398 87.1847 61.7862L86.3545 59.9667C85.0758 60.5501 84.0269 61.379 83.2357 62.4587L84.8489 63.6409ZM87.1894 61.7841C88.1782 61.3268 89.3071 61.0881 90.5942 61.0881V59.0881C89.0546 59.0881 87.6338 59.375 86.3498 59.9688L87.1894 61.7841ZM90.5942 61.0881C91.9249 61.0881 93.0272 61.3377 93.9325 61.7993L94.8411 60.0176C93.6014 59.3854 92.1754 59.0881 90.5942 59.0881V61.0881ZM93.9396 61.8029C94.8763 62.2712 95.5673 62.8842 96.0494 63.6335L97.7313 62.5513C97.0344 61.4682 96.0563 60.6252 94.834 60.014L93.9396 61.8029ZM96.0494 63.6335C96.5332 64.3854 96.7746 65.2091 96.7746 66.1286H98.7746C98.7746 64.8322 98.4265 63.6317 97.7313 62.5513L96.0494 63.6335ZM96.7746 66.1344C96.7804 67.1468 96.4886 67.9311 95.9373 68.5573L97.4385 69.8789C98.3503 68.8431 98.7829 67.5677 98.7746 66.1228L96.7746 66.1344ZM95.9342 68.5609C95.3646 69.2142 94.6104 69.6562 93.6209 69.8708L94.0448 71.8253C95.4131 71.5286 96.5623 70.8839 97.4417 69.8752L95.9342 68.5609ZM92.8328 70.8481V71.0185H94.8328V70.8481H92.8328ZM93.6952 72.009C95.0554 72.1979 95.9888 72.6833 96.6101 73.3856L98.1081 72.0605C97.0959 70.9162 95.6784 70.2652 93.9704 70.028L93.6952 72.009ZM96.6155 73.3917C97.2549 74.1027 97.5902 74.9939 97.5842 76.1376L99.5842 76.148C99.5925 74.5644 99.1111 73.1758 98.1027 72.0544L96.6155 73.3917ZM97.5842 76.1428C97.5842 77.1604 97.2989 78.0485 96.7289 78.8394L98.3515 80.0087C99.1736 78.8678 99.5842 77.5684 99.5842 76.1428H97.5842ZM96.7281 78.8405C96.1544 79.6389 95.3496 80.2867 94.2745 80.7708L95.0957 82.5944C96.4496 81.9847 97.5481 81.1268 98.3523 80.0076L96.7281 78.8405ZM94.2725 80.7717C93.2158 81.2503 91.9756 81.5029 90.5303 81.5029V83.5029C92.2099 83.5029 93.7395 83.2086 95.0977 82.5935L94.2725 80.7717Z" fill="#767676" fill-opacity="0.7" mask="url(#path-11-outside-1_3771_29)"/>
</g>
</g>
<defs>
<filter id="filter0_f_3771_29" x="0.5" y="0.320801" width="119.26" height="122.132" filterUnits="userSpaceOnUse" color-interpolation-filters="sRGB">
<feFlood flood-opacity="0" result="BackgroundImageFix"/>
<feBlend mode="normal" in="SourceGraphic" in2="BackgroundImageFix" result="shape"/>
<feGaussianBlur stdDeviation="2" result="effect1_foregroundBlur_3771_29"/>
</filter>
</defs>
</svg>
