<svg width="820" height="315" viewBox="0 0 820 315" fill="none" xmlns="http://www.w3.org/2000/svg">
<path d="M23.7228 66.0501C21.4346 66.0501 19.3486 65.6984 17.4542 64.9951C15.5704 64.2918 13.9633 63.0876 12.633 61.3825C11.6006 60.125 11.1536 58.7183 11.3026 57.1624C11.4516 55.6066 12.154 54.3171 13.4099 53.2728C14.6657 52.2391 16.0919 51.8341 17.6777 52.0473C19.2634 52.271 20.5086 52.9744 21.392 54.1573C21.9773 54.9032 22.6266 55.468 23.329 55.873C24.0314 56.2779 24.8935 56.4804 25.9365 56.4804H33.695C36.7282 56.4804 39.5911 57.0026 42.2838 58.0363C44.9764 59.07 47.3284 60.498 49.3186 62.3096C51.3088 64.1212 52.9053 66.3059 54.0866 68.8634C55.268 71.421 55.8639 74.1705 55.8639 77.133C55.8639 80.0956 55.268 82.9409 54.0866 85.4559C52.9053 87.9708 51.3195 90.1341 49.3186 91.9458C47.3178 93.7574 44.9764 95.1854 42.2838 96.2191C39.5805 97.2528 36.7176 97.7749 33.695 97.7749H22.1689C19.1357 97.7749 16.2728 97.2528 13.5802 96.2191C10.8769 95.1854 8.5355 93.7574 6.5453 91.9458C4.54446 90.1341 2.95869 87.9708 1.77734 85.4559C0.595994 82.9409 0 80.1702 0 77.133C0 74.9164 0.297992 72.9023 0.883345 71.08C1.47934 69.2684 2.24562 67.6166 3.21412 66.1353C4.02297 64.8779 5.1511 64.068 6.59852 63.695C8.0353 63.322 9.38693 63.5138 10.6428 64.2491C12.0476 65.0697 12.8778 66.1567 13.1332 67.5207C13.3886 68.8954 13.229 70.2062 12.633 71.4637C12.2605 72.2842 11.9518 73.1154 11.6858 73.9573C11.4303 74.8099 11.3026 75.8649 11.3026 77.1224C11.3026 80.4472 12.3137 83.1327 14.3465 85.1681C16.3792 87.2035 19.1357 88.2159 22.6053 88.2159H33.248C36.7176 88.2159 39.4741 87.2035 41.5068 85.1681C43.5396 83.1327 44.5507 80.4472 44.5507 77.1224C44.5507 73.7975 43.529 71.112 41.5068 69.0766C39.4741 67.0412 36.7176 66.0288 33.248 66.0288H23.7121L23.7228 66.0501ZM19.6146 148.65C17.7628 148.65 16.0493 148.319 14.4635 147.648C12.8778 146.977 11.5048 146.071 10.3661 144.931C9.21665 143.78 8.31201 142.416 7.65215 140.828C6.98166 139.24 6.65174 137.556 6.65174 135.777C6.65174 133.997 6.98166 132.313 7.65215 130.725C8.32265 129.137 9.21665 127.763 10.3661 126.623C11.5155 125.482 12.8778 124.566 14.4635 123.905C16.0493 123.234 17.7734 122.903 19.6146 122.903H67.7307C68.763 122.903 69.6357 122.573 70.3381 121.902C71.0406 121.23 71.3918 120.388 71.3918 119.344C71.3918 118.3 71.0406 117.458 70.3381 116.786C69.6357 116.115 68.763 115.785 67.7307 115.785H12.2924C10.9621 115.785 9.86585 115.326 9.02507 114.399C8.17365 113.472 7.74794 112.343 7.74794 111.011C7.74794 109.678 8.17365 108.549 9.02507 107.622C9.8765 106.695 10.9621 106.236 12.2924 106.236H69.7209C71.5621 106.236 73.2862 106.567 74.872 107.238C76.4577 107.909 77.8307 108.815 78.9694 109.955C80.1189 111.106 81.0235 112.449 81.6833 114.005C82.3432 115.561 82.6838 117.223 82.6838 119.003C82.6838 120.783 82.3538 122.445 81.6833 124.001C81.0128 125.557 80.1082 126.91 78.9694 128.05C77.82 129.201 76.4577 130.107 74.872 130.768C73.2862 131.439 71.5621 131.77 69.7209 131.77H21.6048C20.5725 131.77 19.6998 132.121 18.9974 132.825C18.2949 133.528 17.9437 134.402 17.9437 135.436C17.9437 136.469 18.2949 137.343 18.9974 138.046C19.6998 138.75 20.5619 139.101 21.6048 139.101H79.8102C81.1406 139.101 82.2261 139.56 83.0775 140.487C83.929 141.414 84.3547 142.544 84.3547 143.876C84.3547 145.208 83.929 146.337 83.0775 147.264C82.2261 148.192 81.1406 148.65 79.8102 148.65H19.6146ZM81.5982 71.9326H89.9102C91.2406 71.9326 92.3687 72.4334 93.2946 73.4352C94.2205 74.4369 94.6782 75.6411 94.6782 77.0478C94.6782 78.4544 94.2205 79.6586 93.2946 80.6604C92.3687 81.6621 91.2406 82.163 89.9102 82.163H81.5982V97.5938C81.5982 99.0751 81.0448 100.333 79.9379 101.366C78.8311 102.4 77.4582 102.922 75.8405 102.922C74.2227 102.922 72.8498 102.4 71.743 101.366C70.6361 100.333 70.0827 99.0751 70.0827 97.5938V57.4075C70.0827 55.9263 70.6361 54.6688 71.743 53.6351C72.8498 52.6014 74.2227 52.0792 75.8405 52.0792C77.4582 52.0792 78.8311 52.6014 79.9379 53.6351C81.0448 54.6688 81.5982 55.9263 81.5982 57.4075V71.9539V71.9326Z" fill="#221F20"/>
<path d="M119.008 81.9392C121.615 81.9392 124.074 82.3655 126.351 83.2073C128.639 84.0492 130.64 85.2108 132.354 86.6814C134.067 88.152 135.429 89.8997 136.44 91.9138C137.452 93.9279 137.952 96.1125 137.952 98.457V127.56C137.952 129.905 137.452 132.089 136.44 134.104C135.429 136.118 134.078 137.865 132.354 139.336C130.64 140.807 128.639 141.968 126.351 142.81C124.063 143.652 121.615 144.078 119.008 144.078C116.4 144.078 113.942 143.652 111.664 142.81C109.376 141.968 107.375 140.807 105.662 139.336C103.948 137.865 102.586 136.118 101.575 134.104C100.564 132.089 100.063 129.905 100.063 127.56V98.457C100.063 95.7289 100.745 93.2246 102.107 90.9334C102.703 89.953 103.533 89.3029 104.597 88.9726C105.662 88.6422 106.683 88.7808 107.662 89.3775C108.695 89.9743 109.365 90.8268 109.663 91.9138C109.961 93.0008 109.812 94.0345 109.216 95.0149C108.673 96.1019 108.397 97.3594 108.397 98.7767V127.23C108.397 128.594 108.673 129.841 109.216 130.992C109.759 132.132 110.493 133.134 111.419 133.976C112.345 134.818 113.463 135.489 114.772 135.979C116.081 136.469 117.496 136.714 119.018 136.714C120.54 136.714 121.956 136.469 123.265 135.979C124.574 135.489 125.691 134.818 126.617 133.976C127.543 133.134 128.277 132.132 128.82 130.992C129.363 129.852 129.64 128.594 129.64 127.23V98.7767C129.64 97.4127 129.363 96.1658 128.82 95.0149C128.277 93.8747 127.543 92.8729 126.617 92.031C125.691 91.1892 124.574 90.5178 123.265 90.0276C121.956 89.5374 120.54 89.2923 119.018 89.2923H115.176C111.696 89.2923 108.971 88.0348 107.013 85.5305C106.247 84.6034 105.928 83.5697 106.034 82.4294C106.141 81.2891 106.662 80.33 107.588 79.5628C108.514 78.7955 109.557 78.4971 110.728 78.6676C111.898 78.8275 112.814 79.3496 113.463 80.2235C113.899 80.767 114.378 81.1932 114.889 81.4916C115.41 81.79 116.049 81.9392 116.805 81.9392H119.008ZM158.524 107.931H164.644C165.623 107.931 166.453 108.304 167.134 109.039C167.815 109.774 168.156 110.659 168.156 111.693C168.156 112.726 167.815 113.611 167.134 114.346C166.453 115.081 165.623 115.454 164.644 115.454H158.524V144.067C158.524 145.154 158.12 146.082 157.3 146.849C156.481 147.616 155.48 147.989 154.278 147.989C153.075 147.989 152.075 147.605 151.255 146.849C150.436 146.082 150.031 145.154 150.031 144.067V81.449C150.031 80.362 150.436 79.4349 151.255 78.6676C152.075 77.9003 153.075 77.5273 154.278 77.5273C155.48 77.5273 156.481 77.911 157.3 78.6676C158.12 79.4349 158.524 80.362 158.524 81.449V107.941V107.931Z" fill="#221F20"/>
<path d="M189.867 115.785C190.793 116.382 191.389 117.245 191.666 118.364C191.943 119.483 191.804 120.453 191.262 121.263L178.852 141.286C178.256 142.267 177.394 142.896 176.276 143.162C175.159 143.439 174.169 143.301 173.296 142.757C172.317 142.16 171.7 141.297 171.455 140.178C171.211 139.059 171.391 138.036 171.987 137.109L184.397 117.085C184.993 116.158 185.823 115.561 186.887 115.284C187.952 115.007 188.941 115.178 189.867 115.774V115.785ZM198.041 103.519C198.041 105.096 198.137 106.407 198.328 107.441C198.52 108.475 198.914 109.455 199.51 110.382L215.591 136.299C216.187 137.226 216.368 138.249 216.123 139.368C215.878 140.487 215.261 141.34 214.282 141.947C213.409 142.491 212.419 142.629 211.302 142.352C210.184 142.075 209.333 141.457 208.726 140.477L192.475 114.315C191.549 112.844 190.825 111.384 190.314 109.945C189.793 108.507 189.537 106.631 189.537 104.351V83.4209C189.537 82.3339 189.942 81.4068 190.761 80.6395C191.581 79.8722 192.581 79.4992 193.784 79.4992C194.986 79.4992 195.987 79.8829 196.806 80.6395C197.626 81.4068 198.03 82.3339 198.03 83.4209V103.53L198.041 103.519ZM233.63 144.068C233.63 145.155 233.226 146.082 232.407 146.849C231.587 147.617 230.587 147.99 229.384 147.99C228.181 147.99 227.181 147.606 226.361 146.849C225.542 146.082 225.138 145.155 225.138 144.068V108.176H213.707C212.728 108.176 211.898 107.803 211.217 107.068C210.536 106.333 210.195 105.448 210.195 104.414C210.195 103.381 210.536 102.496 211.217 101.761C211.898 101.026 212.728 100.653 213.707 100.653H225.138V81.4387C225.138 80.3518 225.542 79.4246 226.361 78.6573C227.181 77.8901 228.181 77.5171 229.384 77.5171C230.587 77.5171 231.587 77.9007 232.407 78.6573C233.226 79.4246 233.63 80.3518 233.63 81.4387V144.057V144.068Z" fill="#221F20"/>
<path d="M310.674 83.8468C311.589 85.0723 311.951 86.447 311.759 87.971C311.568 89.5055 310.897 90.6884 309.758 91.5196L293.507 103.434C292.283 104.35 290.931 104.691 289.441 104.467C287.951 104.244 286.749 103.594 285.833 102.517C284.918 101.292 284.556 99.9171 284.748 98.3932C284.939 96.8693 285.61 95.6864 286.749 94.8445L303 82.9304C304.224 82.0139 305.576 81.6729 307.066 81.8967C308.556 82.1205 309.758 82.7705 310.674 83.8468ZM344.209 93.7042C345.358 94.5461 346.018 95.729 346.21 97.2529C346.401 98.7874 346.04 100.162 345.124 101.377C344.209 102.443 343.006 103.093 341.516 103.327C340.026 103.551 338.675 103.21 337.451 102.293L314.101 84.3051C312.419 83.0049 311.238 81.4384 310.556 79.6055C309.875 77.7725 309.524 75.7478 309.524 73.5312V67.9151H290.75C289.377 67.9151 288.217 67.4569 287.259 66.5404C286.302 65.624 285.833 64.4411 285.833 62.9918C285.833 61.5425 286.312 60.3596 287.259 59.4431C288.217 58.5266 289.377 58.0684 290.75 58.0684H340.197C341.57 58.0684 342.73 58.5266 343.687 59.4431C344.645 60.3596 345.114 61.5425 345.114 62.9918C345.114 64.4411 344.635 65.624 343.687 66.5404C342.73 67.4569 341.57 67.9151 340.197 67.9151H321.423V72.6147C321.423 73.6058 321.497 74.6075 321.646 75.5986C321.795 76.5896 322.146 77.2823 322.679 77.666L344.198 93.7149L344.209 93.7042ZM306.214 154.319C304.309 154.319 302.532 153.978 300.893 153.286C299.254 152.593 297.838 151.666 296.657 150.483C295.476 149.3 294.539 147.904 293.858 146.295C293.166 144.686 292.826 142.97 292.826 141.137C292.826 139.304 293.166 137.588 293.858 135.979C294.55 134.37 295.476 132.985 296.657 131.791C297.838 130.608 299.254 129.67 300.893 128.988C302.532 128.296 304.309 127.955 306.214 127.955H355.884C356.948 127.955 357.853 127.635 358.577 126.985C359.3 126.335 359.662 125.482 359.662 124.406C359.662 123.33 359.3 122.477 358.577 121.827C357.853 121.177 356.959 120.857 355.884 120.857H298.658C297.285 120.857 296.157 120.378 295.284 119.429C294.411 118.47 293.964 117.309 293.964 115.934C293.964 114.559 294.401 113.398 295.284 112.439C296.157 111.48 297.285 111.011 298.658 111.011H357.938C359.843 111.011 361.621 111.341 363.26 111.98C364.899 112.63 366.314 113.547 367.495 114.73C368.677 115.913 369.613 117.309 370.294 118.918C370.976 120.527 371.327 122.243 371.327 124.076C371.327 125.909 370.986 127.624 370.294 129.233C369.603 130.843 368.677 132.228 367.495 133.422C366.314 134.615 364.899 135.521 363.26 136.171C361.621 136.821 359.843 137.141 357.938 137.141H308.268C307.204 137.141 306.299 137.482 305.576 138.174C304.852 138.867 304.49 139.741 304.49 140.807C304.49 141.872 304.852 142.757 305.576 143.439C306.299 144.132 307.193 144.473 308.268 144.473H368.357C369.73 144.473 370.858 144.952 371.731 145.9C372.604 146.86 373.051 148.021 373.051 149.396C373.051 150.771 372.615 151.932 371.731 152.891C370.858 153.85 369.73 154.319 368.357 154.319H306.214ZM370.188 75.3641H378.777C380.15 75.3641 381.31 75.8756 382.268 76.9093C383.225 77.943 383.694 79.1792 383.694 80.6285C383.694 82.0778 383.215 83.3246 382.268 84.3583C381.31 85.392 380.15 85.9036 378.777 85.9036H370.188V102.059C370.188 103.594 369.613 104.883 368.475 105.959C367.325 107.025 365.92 107.569 364.239 107.569C362.557 107.569 361.152 107.036 360.003 105.959C358.853 104.894 358.289 103.594 358.289 102.059V60.1145C358.289 58.5906 358.864 57.2905 360.003 56.2141C361.152 55.1485 362.557 54.605 364.239 54.605C365.92 54.605 367.325 55.1378 368.475 56.2141C369.624 57.2905 370.188 58.5799 370.188 60.1145V75.3535V75.3641Z" fill="#221F20"/>
<path d="M406.703 91.5297C409.449 91.5297 411.876 92.2543 413.972 93.7036C416.069 95.1529 417.974 96.7408 419.698 98.4565C421.422 100.172 422.997 101.76 424.445 103.209C425.892 104.659 427.265 105.383 428.563 105.383C430.32 105.383 431.575 104.808 432.342 103.668C433.108 102.517 433.789 101.142 434.406 99.5435C434.938 98.0196 435.875 96.9646 437.205 96.3891C438.536 95.8137 439.855 95.7178 441.154 96.1014C442.452 96.485 443.538 97.263 444.411 98.4459C445.283 99.6288 445.496 101.217 445.038 103.199C444.049 107.323 442.027 110.69 438.972 113.28C435.918 115.88 432.331 117.18 428.212 117.18C425.541 117.18 423.136 116.456 421.007 115.006C418.868 113.557 416.942 111.969 415.228 110.253C413.515 108.538 411.95 106.95 410.535 105.501C409.119 104.051 407.767 103.327 406.469 103.327C404.713 103.327 403.436 103.902 402.638 105.042C401.839 106.193 401.126 107.568 400.52 109.166C399.913 110.69 398.934 111.724 397.604 112.257C396.263 112.79 394.954 112.864 393.655 112.491C392.357 112.108 391.292 111.33 390.452 110.147C389.611 108.964 389.419 107.419 389.877 105.501C390.867 101.376 392.889 98.0089 395.943 95.4194C398.998 92.8191 402.584 91.519 406.703 91.519V91.5297Z" fill="#221F20"/>
<path d="M514.376 84.2191C513.695 88.2793 515.377 90.645 519.432 91.3271L528.095 92.787C529.915 93.0961 531.362 93.9593 532.426 95.3979C533.491 96.8259 533.853 98.5097 533.533 100.439C533.214 102.367 532.309 103.827 530.841 104.84C529.372 105.841 527.722 106.193 525.902 105.884L513.897 103.859C508.118 102.89 503.904 100.534 501.254 96.8046C498.604 93.0748 497.752 88.3112 498.731 82.5247L504.042 50.8638C502.222 50.5547 500.775 49.6915 499.711 48.2529C498.646 46.8249 498.284 45.1412 498.604 43.2123C498.923 41.2835 499.828 39.8128 501.296 38.8111C502.765 37.8094 504.415 37.4577 506.235 37.7668L534.959 42.6049C536.779 42.9139 538.227 43.7771 539.291 45.2157C540.355 46.6437 540.728 48.3275 540.398 50.2563C540.068 52.1852 539.174 53.6452 537.705 54.6575C536.237 55.6593 534.587 56.0109 532.767 55.7019L519.549 53.4746L514.387 84.2191H514.376ZM503.255 132.739C501.435 132.43 499.998 131.513 498.955 129.979C497.912 128.444 497.55 126.718 497.869 124.789C498.189 122.86 499.093 121.347 500.583 120.239C502.073 119.13 503.723 118.736 505.553 119.045L593.867 133.911C596.092 134.284 597.848 135.36 599.103 137.14C600.37 138.92 600.817 140.923 600.434 143.15L594.761 176.943C594.421 178.967 593.367 180.566 591.611 181.738C589.855 182.9 587.854 183.294 585.63 182.921C583.395 182.548 581.649 181.514 580.362 179.841C579.084 178.168 578.605 176.314 578.946 174.278L583.65 146.273L503.244 132.739H503.255ZM544.751 52.2385C545.123 50.0112 546.198 48.2849 547.965 47.07C549.732 45.8551 551.732 45.4395 553.957 45.8125L579.34 50.0858C581.16 50.3949 582.607 51.2581 583.671 52.6967C584.736 54.1247 585.098 55.8085 584.778 57.7373C584.459 59.6662 583.554 61.1261 582.086 62.1385C580.617 63.1402 578.967 63.4919 577.147 63.1829L559.363 60.1883L554.202 90.9328C553.52 94.993 555.202 97.3587 559.257 98.0408L576.732 100.982C578.552 101.291 580 102.154 581.064 103.593C582.128 105.021 582.49 106.705 582.171 108.633C581.852 110.562 580.947 112.022 579.478 113.035C578.009 114.036 576.36 114.388 574.54 114.079L553.712 110.573C547.933 109.603 543.718 107.248 541.068 103.518C538.418 99.7885 537.567 95.0249 538.546 89.2384L544.751 52.2491V52.2385ZM610.513 83.1854L621.911 85.1036C623.731 85.4126 625.168 86.3504 626.2 87.9383C627.232 89.5261 627.594 91.2738 627.275 93.2027C626.956 95.1315 626.04 96.6767 624.54 97.8276C623.039 98.9786 621.379 99.4048 619.559 99.1064L608.16 97.1882L603.871 122.754C603.531 124.789 602.477 126.377 600.721 127.549C598.965 128.711 596.964 129.105 594.74 128.732C592.516 128.359 590.76 127.336 589.472 125.652C588.195 123.979 587.716 122.125 588.056 120.089L598.891 55.5527C599.231 53.5279 600.285 51.9294 602.041 50.7572C603.797 49.5956 605.798 49.2013 608.022 49.5743C610.246 49.9473 612.003 50.981 613.29 52.6541C614.567 54.3378 615.046 56.1814 614.706 58.2169L610.513 83.1747V83.1854Z" fill="#221F20"/>
<path d="M99.6696 251.295C101.447 251.295 103.214 250.932 104.959 250.186C106.704 249.451 108.248 248.386 109.61 246.989C110.962 245.593 112.068 243.91 112.92 241.928C113.771 239.945 114.197 237.676 114.197 235.118V227.094H100.83C99.4354 227.094 98.2541 226.625 97.2856 225.698C96.3171 224.77 95.8382 223.566 95.8382 222.096C95.8382 220.625 96.3171 219.421 97.2856 218.494C98.2541 217.566 99.4354 217.098 100.83 217.098H120.008C121.711 217.098 123.148 217.684 124.308 218.845C125.468 220.007 126.053 221.446 126.053 223.151V234.905C126.053 238.784 125.361 242.333 123.956 245.551C122.562 248.769 120.678 251.54 118.316 253.874C115.953 256.197 113.165 258.03 109.95 259.341C106.736 260.662 103.309 261.323 99.6696 261.323C98.2754 261.323 97.094 260.854 96.1255 259.927C95.157 259 94.6781 257.795 94.6781 256.314C94.6781 254.833 95.157 253.639 96.1255 252.712C97.094 251.785 98.2754 251.316 99.6696 251.316V251.295ZM117.102 314.84C115.165 314.84 113.367 314.489 111.696 313.796C110.025 313.093 108.599 312.144 107.396 310.94C106.194 309.736 105.246 308.297 104.544 306.635C103.842 304.962 103.501 303.203 103.501 301.338C103.501 299.474 103.852 297.715 104.544 296.042C105.246 294.38 106.194 292.941 107.396 291.737C108.599 290.533 110.025 289.584 111.696 288.881C113.356 288.177 115.165 287.836 117.102 287.836H167.539C168.624 287.836 169.529 287.485 170.274 286.792C171.008 286.089 171.381 285.204 171.381 284.117C171.381 283.03 171.008 282.135 170.274 281.442C169.539 280.739 168.624 280.398 167.539 280.398H109.429C108.035 280.398 106.885 279.919 106.002 278.949C105.108 277.979 104.661 276.796 104.661 275.4C104.661 274.004 105.108 272.821 106.002 271.851C106.896 270.882 108.035 270.402 109.429 270.402H169.635C171.572 270.402 173.371 270.754 175.042 271.447C176.702 272.15 178.139 273.098 179.341 274.302C180.544 275.507 181.491 276.924 182.194 278.555C182.896 280.185 183.237 281.933 183.237 283.787C183.237 285.641 182.885 287.389 182.194 289.019C181.491 290.65 180.544 292.067 179.341 293.261C178.139 294.465 176.702 295.413 175.042 296.117C173.371 296.82 171.572 297.161 169.635 297.161H119.199C118.114 297.161 117.209 297.534 116.464 298.269C115.719 299.005 115.357 299.921 115.357 301.008C115.357 302.095 115.719 303.012 116.464 303.747C117.198 304.482 118.114 304.855 119.199 304.855H180.214C181.608 304.855 182.747 305.335 183.641 306.304C184.535 307.274 184.982 308.457 184.982 309.853C184.982 311.249 184.535 312.432 183.641 313.402C182.747 314.372 181.608 314.851 180.214 314.851H117.102V314.84ZM129.895 252.456C131.672 252.456 133.439 252.094 135.185 251.348C136.93 250.613 138.473 249.547 139.835 248.151C141.187 246.755 142.294 245.071 143.145 243.089C143.997 241.107 144.422 238.837 144.422 236.28V227.083H134.546C133.152 227.083 131.97 226.614 131.002 225.687C130.033 224.76 129.555 223.556 129.555 222.085C129.555 220.614 130.033 219.41 131.002 218.483C131.97 217.556 133.152 217.087 134.546 217.087H150.233C151.936 217.087 153.373 217.673 154.533 218.835C155.693 219.996 156.279 221.435 156.279 223.14V236.056C156.279 239.935 155.576 243.483 154.182 246.702C152.788 249.92 150.904 252.691 148.541 255.025C146.179 257.348 143.39 259.181 140.176 260.491C136.962 261.813 133.535 262.474 129.895 262.474C128.501 262.474 127.32 262.005 126.351 261.078C125.383 260.15 124.893 258.946 124.893 257.476C124.893 256.005 125.372 254.801 126.351 253.874C127.32 252.947 128.501 252.478 129.895 252.478V252.456ZM182.077 234.425H190.793C192.187 234.425 193.369 234.948 194.337 235.992C195.306 237.036 195.795 238.304 195.795 239.775C195.795 241.246 195.306 242.514 194.337 243.558C193.369 244.602 192.187 245.125 190.793 245.125H182.077V261.301C182.077 262.857 181.491 264.168 180.331 265.255C179.171 266.342 177.734 266.885 176.032 266.885C174.329 266.885 172.892 266.342 171.732 265.255C170.572 264.168 169.986 262.847 169.986 261.301V219.176C169.986 217.62 170.572 216.309 171.732 215.222C172.892 214.135 174.329 213.592 176.032 213.592C177.734 213.592 179.171 214.135 180.331 215.222C181.491 216.309 182.077 217.63 182.077 219.176V234.425Z" fill="#221F20"/>
<path d="M202.415 277.574C201.383 277.574 200.51 277.201 199.786 276.455C199.063 275.709 198.711 274.793 198.711 273.695C198.711 272.597 199.073 271.681 199.786 270.935C200.499 270.189 201.383 269.816 202.415 269.816H267.017C268.049 269.816 268.922 270.189 269.645 270.935C270.359 271.681 270.72 272.597 270.72 273.695C270.72 274.793 270.359 275.709 269.645 276.455C268.922 277.201 268.049 277.574 267.017 277.574H202.415ZM216.804 314.84C213.526 314.84 210.993 313.935 209.184 312.123C207.375 310.311 206.47 307.764 206.47 304.493V294.145C205.438 294.145 204.565 293.783 203.841 293.069C203.117 292.355 202.766 291.449 202.766 290.351C202.766 289.254 203.128 288.359 203.841 287.634C204.554 286.92 205.438 286.558 206.47 286.558H259.354C260.62 286.558 261.685 286.984 262.536 287.847C263.398 288.71 263.824 289.776 263.824 291.033V310.354C263.824 311.622 263.398 312.688 262.536 313.54C261.674 314.403 260.61 314.83 259.354 314.83H216.804V314.84ZM207.162 249.462C206.129 249.462 205.257 249.099 204.533 248.385C203.809 247.671 203.458 246.766 203.458 245.668C203.458 244.57 203.82 243.675 204.533 242.951C205.246 242.237 206.129 241.874 207.162 241.874H228.096C229.363 241.874 230.427 242.301 231.278 243.164C232.14 244.027 232.566 245.093 232.566 246.35V262.218C232.566 263.369 232.151 264.349 231.321 265.148C230.491 265.958 229.437 266.353 228.181 266.353C226.925 266.353 225.872 265.948 225.042 265.148C224.211 264.338 223.796 263.369 223.796 262.218V249.451H207.172L207.162 249.462ZM215.25 303.8C215.25 306.102 216.4 307.253 218.698 307.253H255.044V294.145H215.25V303.8ZM239.718 249.462C238.686 249.462 237.813 249.099 237.089 248.385C236.365 247.671 236.014 246.766 236.014 245.668C236.014 244.57 236.376 243.675 237.089 242.951C237.802 242.237 238.686 241.874 239.718 241.874H259.79C261.057 241.874 262.121 242.301 262.972 243.164C263.834 244.027 264.26 245.093 264.26 246.35V262.218C264.26 263.369 263.845 264.349 263.015 265.148C262.185 265.958 261.131 266.353 259.875 266.353C258.62 266.353 257.566 265.948 256.736 265.148C255.906 264.338 255.491 263.369 255.491 262.218V249.451H239.729L239.718 249.462Z" fill="#221F20"/>
<path d="M279.852 256.538C278.82 256.538 277.947 256.165 277.223 255.419C276.499 254.673 276.148 253.756 276.148 252.659C276.148 251.561 276.51 250.645 277.223 249.899C277.936 249.153 278.82 248.78 279.852 248.78H294.922V243.345C294.922 242.194 295.348 241.213 296.21 240.414C297.072 239.604 298.136 239.21 299.392 239.21C300.648 239.21 301.723 239.615 302.574 240.414C303.436 241.224 303.862 242.194 303.862 243.345V248.78H318.932C319.965 248.78 320.837 249.153 321.561 249.899C322.274 250.645 322.636 251.561 322.636 252.659C322.636 253.756 322.274 254.673 321.561 255.419C320.837 256.165 319.965 256.538 318.932 256.538H279.831H279.852ZM299.403 310.865C296.646 310.865 294.092 310.418 291.74 309.533C289.388 308.638 287.312 307.402 285.535 305.825C283.758 304.248 282.364 302.372 281.363 300.219C280.363 298.067 279.852 295.744 279.852 293.271V279.3C279.852 276.828 280.352 274.515 281.363 272.352C282.364 270.2 283.758 268.324 285.535 266.747C287.312 265.17 289.377 263.933 291.74 263.038C294.092 262.143 296.646 261.696 299.403 261.696C302.159 261.696 304.713 262.143 307.065 263.038C309.418 263.933 311.482 265.17 313.27 266.747C315.048 268.324 316.442 270.2 317.453 272.352C318.453 274.505 318.964 276.828 318.964 279.3V293.271C318.964 295.744 318.464 298.056 317.453 300.219C316.452 302.372 315.058 304.248 313.27 305.825C311.493 307.402 309.418 308.638 307.065 309.533C304.713 310.428 302.159 310.865 299.403 310.865ZM310.173 279.471C310.173 278.032 309.896 276.7 309.354 275.464C308.811 274.228 308.066 273.151 307.119 272.224C306.171 271.308 305.033 270.583 303.713 270.072C302.393 269.549 300.957 269.294 299.403 269.294C297.849 269.294 296.412 269.549 295.092 270.072C293.773 270.594 292.634 271.308 291.687 272.224C290.739 273.141 289.994 274.228 289.452 275.464C288.909 276.7 288.632 278.043 288.632 279.471V293.101C288.632 294.539 288.909 295.871 289.452 297.108C289.994 298.344 290.739 299.42 291.687 300.347C292.634 301.264 293.773 301.988 295.092 302.5C296.412 303.022 297.849 303.278 299.403 303.278C300.957 303.278 302.393 303.022 303.713 302.5C305.033 301.978 306.171 301.264 307.119 300.347C308.066 299.431 308.811 298.354 309.354 297.108C309.896 295.871 310.173 294.539 310.173 293.101V279.471ZM340.665 271.883H347.125C348.157 271.883 349.03 272.267 349.754 273.045C350.467 273.823 350.829 274.761 350.829 275.848C350.829 276.935 350.467 277.872 349.754 278.65C349.03 279.428 348.157 279.812 347.125 279.812H340.665V310.002C340.665 311.153 340.239 312.133 339.377 312.933C338.515 313.732 337.451 314.137 336.195 314.137C334.939 314.137 333.864 313.732 333.013 312.933C332.151 312.123 331.725 311.153 331.725 310.002V243.942C331.725 242.791 332.151 241.81 333.013 241.011C333.875 240.212 334.939 239.807 336.195 239.807C337.451 239.807 338.526 240.212 339.377 241.011C340.239 241.821 340.665 242.791 340.665 243.942V271.883Z" fill="#221F20"/>
<path d="M357.459 310.002C356.427 310.002 355.554 309.618 354.83 308.84C354.107 308.062 353.755 307.124 353.755 306.037C353.755 304.95 354.117 304.013 354.83 303.235C355.543 302.457 356.427 302.073 357.459 302.073H381.831V273.609C381.831 272.458 382.257 271.478 383.119 270.679C383.981 269.869 385.045 269.474 386.301 269.474C387.557 269.474 388.632 269.879 389.483 270.679C390.345 271.489 390.771 272.458 390.771 273.609V302.073H422.04C423.072 302.073 423.945 302.457 424.668 303.235C425.381 304.013 425.743 304.95 425.743 306.037C425.743 307.124 425.381 308.062 424.668 308.84C423.945 309.618 423.072 310.002 422.04 310.002H357.438H357.459ZM362.632 251.529C361.599 251.529 360.727 251.145 360.003 250.367C359.279 249.589 358.928 248.662 358.928 247.564C358.928 246.467 359.29 245.54 360.003 244.762C360.716 243.984 361.599 243.6 362.632 243.6H414.398C415.665 243.6 416.729 244.026 417.58 244.89C418.442 245.753 418.868 246.818 418.868 248.076V287.58C418.868 288.731 418.442 289.711 417.58 290.511C416.718 291.321 415.654 291.715 414.398 291.715C413.142 291.715 412.067 291.31 411.216 290.511C410.354 289.711 409.928 288.731 409.928 287.58V251.529H362.642H362.632Z" fill="#221F20"/>
<path d="M515.643 246.446C516.877 247.394 517.59 248.577 517.771 249.994C517.952 251.412 517.644 252.669 516.845 253.767L504.617 270.924C503.744 272.16 502.563 272.895 501.073 273.109C499.583 273.332 498.284 273.034 497.199 272.235C495.964 271.286 495.272 270.103 495.123 268.686C494.974 267.269 495.304 265.937 496.103 264.701L508.331 247.543C509.129 246.307 510.257 245.593 511.716 245.412C513.174 245.231 514.483 245.572 515.643 246.446ZM578.946 304.365C580.255 304.365 581.362 304.844 582.277 305.782C583.182 306.73 583.639 307.892 583.639 309.277C583.639 310.663 583.182 311.824 582.277 312.773C581.362 313.721 580.255 314.19 578.946 314.19H520.23C516.079 314.19 512.865 313.039 510.566 310.748C508.278 308.457 507.129 305.228 507.129 301.072V285.769C507.129 284.309 507.671 283.073 508.767 282.05C509.864 281.026 511.205 280.515 512.801 280.515C514.398 280.515 515.749 281.026 516.835 282.05C517.931 283.073 518.474 284.309 518.474 285.769V299.974C518.474 302.894 519.932 304.343 522.837 304.343H578.935L578.946 304.365ZM544.123 263.603C544.996 264.764 545.336 266.086 545.155 267.535C544.974 268.995 544.261 270.199 543.027 271.137C541.93 271.936 540.664 272.224 539.206 272.011C537.748 271.798 536.545 271.063 535.609 269.826L518.91 246.659C517.601 244.836 516.547 243.089 515.749 241.416C514.951 239.743 514.547 237.846 514.547 235.736V226.773C514.547 225.314 515.068 224.077 516.132 223.054C517.186 222.031 518.516 221.52 520.113 221.52C521.709 221.52 523.039 222.031 524.093 223.054C525.147 224.077 525.679 225.314 525.679 226.773V234.862C525.679 235.96 525.764 236.94 525.956 237.814C526.137 238.688 526.52 239.487 527.105 240.222L544.133 263.603H544.123ZM561.045 281.847C561.045 283.307 560.513 284.543 559.459 285.566C558.405 286.589 557.118 287.101 555.585 287.101C554.053 287.101 552.765 286.589 551.711 285.566C550.658 284.543 550.125 283.307 550.125 281.847V247.202H542.377C541.068 247.202 539.961 246.744 539.046 245.838C538.131 244.932 537.684 243.781 537.684 242.396C537.684 241.011 538.142 239.871 539.046 238.954C539.951 238.048 541.068 237.59 542.377 237.59H550.125V225.793C550.125 224.333 550.647 223.097 551.711 222.074C552.765 221.051 554.053 220.539 555.585 220.539C557.118 220.539 558.405 221.051 559.459 222.074C560.513 223.097 561.045 224.333 561.045 225.793V281.858V281.847ZM580.904 284.586C580.904 286.046 580.361 287.282 579.265 288.305C578.169 289.328 576.86 289.84 575.338 289.84C573.816 289.84 572.497 289.328 571.411 288.305C570.315 287.282 569.772 286.046 569.772 284.586V225.25C569.772 223.79 570.315 222.553 571.411 221.53C572.507 220.507 573.816 219.996 575.338 219.996C576.86 219.996 578.18 220.507 579.265 221.53C580.361 222.553 580.904 223.79 580.904 225.25V284.586Z" fill="#221F20"/>
<path d="M595.953 309.97C594.9 309.97 594.006 309.576 593.271 308.776C592.537 307.988 592.175 307.029 592.175 305.91C592.175 304.791 592.537 303.842 593.271 303.043C594.006 302.255 594.9 301.85 595.953 301.85H661.96C663.013 301.85 663.907 302.244 664.642 303.043C665.376 303.832 665.738 304.791 665.738 305.91C665.738 307.029 665.376 307.977 664.642 308.776C663.907 309.565 663.013 309.97 661.96 309.97H595.953ZM603.169 284.405C602.286 285.172 601.232 285.46 599.997 285.289C598.763 285.108 597.826 284.554 597.177 283.616C596.475 282.678 596.209 281.623 596.389 280.44C596.57 279.268 597.092 278.33 597.975 277.616L618.303 261.045C619.186 260.278 620.24 259.99 621.475 260.161C622.709 260.342 623.646 260.896 624.295 261.834C624.997 262.772 625.263 263.827 625.082 265.01C624.902 266.182 624.38 267.12 623.497 267.834L603.169 284.405ZM629.574 264.136C628.222 263.017 627.019 261.685 625.966 260.129C624.912 258.573 624.38 256.74 624.38 254.619V244.4C624.38 243.227 624.816 242.258 625.7 241.49C626.583 240.723 627.669 240.35 628.956 240.35C630.244 240.35 631.33 240.734 632.213 241.49C633.096 242.258 633.533 243.227 633.533 244.4V253.916C633.533 255.674 634.118 256.996 635.289 257.88L659.938 277.616C660.874 278.32 661.417 279.258 661.566 280.44C661.715 281.613 661.438 282.678 660.725 283.616C660.076 284.554 659.15 285.097 657.947 285.247C656.745 285.396 655.67 285.119 654.733 284.405L629.563 264.136H629.574Z" fill="#221F20"/>
<path d="M692.153 249.867C690.333 249.867 688.673 249.558 687.183 248.94C685.683 248.321 684.416 247.341 683.352 245.988C682.532 244.986 682.181 243.878 682.298 242.641C682.415 241.405 682.969 240.382 683.969 239.562C684.969 238.741 686.098 238.411 687.354 238.592C688.609 238.773 689.599 239.327 690.302 240.265C690.77 240.851 691.281 241.309 691.845 241.629C692.398 241.949 693.09 242.119 693.909 242.119H700.423C702.828 242.119 705.106 242.556 707.245 243.441C709.384 244.325 711.246 245.529 712.832 247.053C714.418 248.577 715.674 250.421 716.621 252.563C717.558 254.705 718.026 257.017 718.026 259.479C718.026 261.941 717.558 264.253 716.621 266.395C715.685 268.537 714.418 270.381 712.832 271.905C711.246 273.428 709.384 274.633 707.245 275.517C705.106 276.402 702.828 276.839 700.423 276.839H690.919C688.514 276.839 686.236 276.402 684.097 275.517C681.958 274.633 680.095 273.428 678.509 271.905C676.924 270.381 675.668 268.537 674.72 266.395C673.784 264.253 673.316 261.941 673.316 259.479C673.316 257.603 673.582 255.856 674.103 254.236C674.635 252.616 675.306 251.167 676.125 249.877C676.775 248.876 677.669 248.236 678.807 247.938C679.957 247.639 681.021 247.789 682.021 248.375C683.139 249.025 683.831 249.92 684.086 251.06C684.352 252.211 684.193 253.255 683.607 254.193C683.192 254.843 682.873 255.6 682.639 256.484C682.405 257.369 682.288 258.371 682.288 259.479C682.288 262.303 683.096 264.605 684.703 266.395C686.321 268.185 688.503 269.081 691.259 269.081H700.061C702.817 269.081 704.999 268.185 706.617 266.395C708.235 264.605 709.033 262.292 709.033 259.479C709.033 256.666 708.224 254.353 706.617 252.563C704.999 250.772 702.817 249.877 700.061 249.877H692.143L692.153 249.867ZM691.185 298.514C692.068 299.282 692.547 300.251 692.632 301.424C692.717 302.596 692.409 303.597 691.706 304.418L683.873 313.412C683.054 314.35 682.064 314.862 680.925 314.957C679.776 315.043 678.765 314.734 677.892 314.03C676.955 313.21 676.445 312.208 676.349 311.036C676.264 309.864 676.594 308.83 677.36 307.956L685.193 298.962C686.012 298.077 686.992 297.598 688.141 297.513C689.29 297.427 690.302 297.758 691.174 298.525L691.185 298.514ZM720.144 298.514C721.027 299.282 721.495 300.251 721.549 301.424C721.602 302.596 721.283 303.597 720.58 304.418L712.832 313.412C711.949 314.467 710.842 315 709.49 315C708.139 315 707.117 314.467 706.234 313.412L693.824 299.132C692.771 297.96 691.962 296.735 691.408 295.477C690.855 294.209 690.568 292.728 690.568 291.023V287.229C690.568 286.057 690.993 285.087 691.845 284.32C692.696 283.552 693.76 283.169 695.059 283.169C696.357 283.169 697.422 283.552 698.273 284.32C699.124 285.087 699.55 286.057 699.55 287.229V290.309C699.55 291.896 699.848 293.069 700.433 293.836L709.501 304.674L714.163 299.036C714.929 298.099 715.897 297.587 717.068 297.491C718.239 297.406 719.271 297.736 720.144 298.504V298.514ZM741.706 307.935C742.472 308.819 742.802 309.842 742.717 311.015C742.632 312.187 742.111 313.188 741.174 314.009C740.291 314.712 739.28 315.021 738.141 314.936C736.991 314.851 736.012 314.329 735.193 313.391L722.783 299.111C721.73 297.939 720.921 296.713 720.367 295.456C719.814 294.188 719.527 292.706 719.527 291.001V287.208C719.527 286.035 719.952 285.066 720.804 284.298C721.655 283.531 722.719 283.147 724.018 283.147C725.316 283.147 726.381 283.531 727.232 284.298C728.083 285.066 728.509 286.035 728.509 287.208V290.287C728.509 291.055 728.562 291.726 728.69 292.312C728.807 292.898 729.041 293.399 729.392 293.815L741.717 307.913L741.706 307.935ZM738.971 277.894C738.971 279.066 738.535 280.068 737.651 280.888C736.768 281.709 735.682 282.124 734.395 282.124C733.107 282.124 732.021 281.709 731.138 280.888C730.255 280.068 729.818 279.066 729.818 277.894V242.471C729.818 241.299 730.255 240.297 731.138 239.476C732.021 238.656 733.107 238.24 734.395 238.24C735.682 238.24 736.768 238.656 737.651 239.476C738.535 240.297 738.971 241.299 738.971 242.471V277.894Z" fill="#221F20"/>
<path d="M755.435 250.037C754.382 250.037 753.488 249.653 752.753 248.886C752.019 248.119 751.657 247.181 751.657 246.062C751.657 244.943 752.019 244.005 752.753 243.238C753.488 242.471 754.382 242.098 755.435 242.098H780.52C781.808 242.098 782.894 242.535 783.777 243.419C784.66 244.304 785.097 245.391 785.097 246.68V270.295H793.366V242.886C793.366 241.714 793.792 240.712 794.643 239.892C795.495 239.071 796.538 238.656 797.772 238.656C799.007 238.656 800.05 239.071 800.901 239.892C801.753 240.712 802.178 241.714 802.178 242.886V309.075C802.178 310.247 801.753 311.249 800.901 312.069C800.05 312.89 799.007 313.305 797.772 313.305C796.538 313.305 795.495 312.89 794.643 312.069C793.792 311.249 793.366 310.247 793.366 309.075V278.234H784.565C783.979 282.934 782.851 287.175 781.18 290.969C779.509 294.763 777.349 298.002 774.709 300.709C772.07 303.416 768.984 305.483 765.472 306.922C761.949 308.361 758.022 309.085 753.679 309.085C752.626 309.085 751.732 308.702 750.997 307.934C750.263 307.167 749.901 306.229 749.901 305.11C749.901 303.991 750.263 303.054 750.997 302.286C751.732 301.519 752.626 301.146 753.679 301.146C756.851 301.146 759.81 300.475 762.566 299.121C765.323 297.768 767.696 295.786 769.697 293.175C771.687 290.564 773.262 287.346 774.401 283.531C775.55 279.716 776.114 275.368 776.114 270.487V250.037H755.435ZM819.069 309.97C819.069 311.142 818.632 312.144 817.749 312.964C816.866 313.785 815.812 314.201 814.577 314.201C813.343 314.201 812.289 313.785 811.406 312.964C810.522 312.144 810.086 311.142 810.086 309.97V242.46C810.086 241.288 810.522 240.286 811.406 239.465C812.289 238.645 813.343 238.229 814.577 238.229C815.812 238.229 816.866 238.645 817.749 239.465C818.632 240.286 819.069 241.288 819.069 242.46V309.97Z" fill="#221F20"/>
<path d="M575.966 24.6382C582.761 24.6382 588.269 19.1227 588.269 12.3191C588.269 5.51544 582.761 0 575.966 0C569.171 0 563.663 5.51544 563.663 12.3191C563.663 19.1227 569.171 24.6382 575.966 24.6382Z" fill="#221F20"/>
</svg>
