<svg width="137" height="121" viewBox="0 0 137 121" fill="none" xmlns="http://www.w3.org/2000/svg">
<path d="M67.5224 12.9822C53.0753 12.9822 45.7154 18.3456 39.1002 25.265H97.5843C90.9692 18.3456 81.9694 12.9822 67.5224 12.9822Z" stroke="#767676" stroke-width="5" stroke-miterlimit="10"/>
<path d="M129.122 24.0588H112.392C103.598 12.171 89.5357 3 67.0434 3C44.5511 3 33.3207 12.171 24.5273 24.0588H10.3914C5.88453 24.0692 3 24.7266 3 28.618C3 31.1354 5.04189 33.1773 7.5593 33.1773L8.31452 33.3452C8.31452 66.2742 8.31452 117.671 68.3405 117.671C128.367 117.671 128.367 66.2742 128.367 33.3452L129.122 33.1773C131.639 33.1773 133.681 31.1354 133.681 28.618C133.681 26.1006 131.639 24.0588 129.122 24.0588Z" stroke="#767676" stroke-width="5" stroke-miterlimit="10"/>
</svg>
