<svg width="135" height="119" viewBox="0 0 135 119" fill="none" xmlns="http://www.w3.org/2000/svg">
<g filter="url(#filter0_f_3771_38)">
<path d="M102.434 14.5574H13.3151C9.57471 14.5574 6.54254 17.5101 6.54254 21.1524V105.665C6.54254 109.307 9.57471 112.26 13.3151 112.26H102.434C106.175 112.26 109.207 109.307 109.207 105.665V21.1524C109.207 17.5101 106.175 14.5574 102.434 14.5574Z" fill="white" stroke="#767676" stroke-opacity="0.7" stroke-width="5" stroke-miterlimit="10"/>
<path d="M6.54254 32.4763H109.207" stroke="#767676" stroke-opacity="0.7" stroke-width="5" stroke-miterlimit="10"/>
<path d="M25.9572 23.1031C24.9166 23.6854 23.7445 24.0145 22.5006 24.0145C18.2428 24.0145 14.7922 20.1652 14.7922 15.4191C14.7922 10.673 18.2428 6.8208 22.5006 6.8208C26.4445 6.8208 29.6978 10.1256 30.1522 14.3883" fill="white"/>
<path d="M25.9572 23.1031C24.9166 23.6854 23.7445 24.0145 22.5006 24.0145C18.2428 24.0145 14.7922 20.1652 14.7922 15.4191C14.7922 10.673 18.2428 6.8208 22.5006 6.8208C26.4445 6.8208 29.6978 10.1256 30.1522 14.3883" stroke="#767676" stroke-opacity="0.7" stroke-width="5" stroke-miterlimit="10" stroke-linecap="round"/>
<path d="M48.6818 23.1026C47.6412 23.685 46.4691 24.014 45.2252 24.014C40.9674 24.014 37.5168 20.1647 37.5168 15.4186C37.5168 10.6725 40.9674 6.82324 45.2252 6.82324C49.1692 6.82324 52.4224 10.128 52.8769 14.3908" fill="white"/>
<path d="M48.6818 23.1026C47.6412 23.685 46.4691 24.014 45.2252 24.014C40.9674 24.014 37.5168 20.1647 37.5168 15.4186C37.5168 10.6725 40.9674 6.82324 45.2252 6.82324C49.1692 6.82324 52.4224 10.128 52.8769 14.3908" stroke="#767676" stroke-opacity="0.7" stroke-width="5" stroke-miterlimit="10" stroke-linecap="round"/>
<path d="M71.4063 23.1026C70.3658 23.685 69.1937 24.014 67.9498 24.014C63.6919 24.014 60.2414 20.1647 60.2414 15.4186C60.2414 10.6725 63.6919 6.82324 67.9498 6.82324C71.8937 6.82324 75.1469 10.128 75.6014 14.3908" fill="white"/>
<path d="M71.4063 23.1026C70.3658 23.685 69.1937 24.014 67.9498 24.014C63.6919 24.014 60.2414 20.1647 60.2414 15.4186C60.2414 10.6725 63.6919 6.82324 67.9498 6.82324C71.8937 6.82324 75.1469 10.128 75.6014 14.3908" stroke="#767676" stroke-opacity="0.7" stroke-width="5" stroke-miterlimit="10" stroke-linecap="round"/>
<path d="M94.1339 23.1026C93.0934 23.685 91.9213 24.014 90.6774 24.014C86.4195 24.014 82.969 20.1647 82.969 15.4186C82.969 10.6725 86.4195 6.82324 90.6774 6.82324C94.6213 6.82324 97.8745 10.128 98.329 14.3908" fill="white"/>
<path d="M94.1339 23.1026C93.0934 23.685 91.9213 24.014 90.6774 24.014C86.4195 24.014 82.969 20.1647 82.969 15.4186C82.969 10.6725 86.4195 6.82324 90.6774 6.82324C94.6213 6.82324 97.8745 10.128 98.329 14.3908" stroke="#767676" stroke-opacity="0.7" stroke-width="5" stroke-miterlimit="10" stroke-linecap="round"/>
<path d="M35.3937 79.2346H28.0002V57.4164H35.5428C37.709 57.4164 39.5698 57.8532 41.1252 58.7268C42.6877 59.5933 43.888 60.8397 44.7261 62.4662C45.5641 64.0926 45.9832 66.0386 45.9832 68.3042C45.9832 70.5769 45.5606 72.5301 44.7154 74.1636C43.8774 75.7971 42.6664 77.0507 41.0826 77.9242C39.5059 78.7978 37.6096 79.2346 35.3937 79.2346ZM31.9526 75.8149H35.2019C36.7218 75.8149 37.9896 75.5379 39.0052 74.9839C40.0208 74.4228 40.7843 73.5883 41.2957 72.4804C41.807 71.3653 42.0627 69.9733 42.0627 68.3042C42.0627 66.6352 41.807 65.2502 41.2957 64.1494C40.7843 63.0414 40.0279 62.214 39.0265 61.6671C38.0322 61.1132 36.7964 60.8362 35.3191 60.8362H31.9526V75.8149ZM58.9764 66.7382V69.9129H49.1539V66.7382H58.9764ZM71.3543 57.4164V79.2346H67.4019V61.2623H67.2741L62.1711 64.5223V60.9001L67.5937 57.4164H71.3543ZM76.3841 79.2346V76.3795L83.9587 68.9541C84.6831 68.2225 85.2868 67.5727 85.7698 67.0045C86.2527 66.4363 86.6149 65.8859 86.8564 65.3532C87.0979 64.8206 87.2186 64.2524 87.2186 63.6487C87.2186 62.9598 87.0624 62.3703 86.7499 61.8802C86.4374 61.3831 86.0077 60.9995 85.4608 60.7296C84.9139 60.4598 84.2925 60.3248 83.5965 60.3248C82.8791 60.3248 82.2506 60.474 81.7108 60.7723C81.171 61.0635 80.752 61.4789 80.4537 62.0187C80.1625 62.5585 80.0169 63.2012 80.0169 63.947H76.2563C76.2563 62.562 76.5723 61.3582 77.2044 60.3355C77.8365 59.3127 78.7066 58.5208 79.8145 57.9598C80.9296 57.3987 82.208 57.1181 83.6497 57.1181C85.1128 57.1181 86.3983 57.3916 87.5063 57.9385C88.6142 58.4853 89.4736 59.2346 90.0844 60.1863C90.7023 61.138 91.0112 62.2247 91.0112 63.4463C91.0112 64.263 90.855 65.0656 90.5425 65.8539C90.23 66.6423 89.6796 67.5159 88.8912 68.4747C88.11 69.4335 87.0127 70.5947 85.5993 71.9583L81.8387 75.7829V75.9321H91.3415V79.2346H76.3841ZM95.3059 79.2346L104.585 60.8681V60.719H93.8144V57.4164H108.676V60.7936L99.4075 79.2346H95.3059Z" fill="#696969" fill-opacity="0.7"/>
</g>
<defs>
<filter id="filter0_f_3771_38" x="0.0425415" y="0.320801" width="115.664" height="118.439" filterUnits="userSpaceOnUse" color-interpolation-filters="sRGB">
<feFlood flood-opacity="0" result="BackgroundImageFix"/>
<feBlend mode="normal" in="SourceGraphic" in2="BackgroundImageFix" result="shape"/>
<feGaussianBlur stdDeviation="2" result="effect1_foregroundBlur_3771_38"/>
</filter>
</defs>
</svg>
