<svg width="140" height="144" viewBox="0 0 140 144" fill="none" xmlns="http://www.w3.org/2000/svg">
<path d="M128.343 13.1338H11.609C6.70962 13.1338 2.73792 17.0014 2.73792 21.7724V132.472C2.73792 137.243 6.70962 141.11 11.609 141.11H128.343C133.242 141.11 137.214 137.243 137.214 132.472V21.7724C137.214 17.0014 133.242 13.1338 128.343 13.1338Z" fill="white" stroke="#767676" stroke-width="5" stroke-miterlimit="10"/>
<path d="M2.73792 36.6052H137.214" stroke="#767676" stroke-width="5" stroke-miterlimit="10"/>
<path d="M28.1682 24.3275C26.8053 25.0903 25.27 25.5213 23.6407 25.5213C18.0635 25.5213 13.5437 20.4793 13.5437 14.2626C13.5437 8.04584 18.0635 3 23.6407 3C28.8067 3 33.0679 7.32882 33.6632 12.9124" fill="white"/>
<path d="M28.1682 24.3275C26.8053 25.0903 25.27 25.5213 23.6407 25.5213C18.0635 25.5213 13.5437 20.4793 13.5437 14.2626C13.5437 8.04584 18.0635 3 23.6407 3C28.8067 3 33.0679 7.32882 33.6632 12.9124" stroke="#767676" stroke-width="5" stroke-miterlimit="10" stroke-linecap="round"/>
<path d="M57.9343 24.3274C56.5713 25.0902 55.036 25.5211 53.4067 25.5211C47.8295 25.5211 43.3098 20.4791 43.3098 14.2624C43.3098 8.04568 47.8295 3.00366 53.4067 3.00366C58.5727 3.00366 62.834 7.33248 63.4293 12.9161" fill="white"/>
<path d="M57.9343 24.3274C56.5713 25.0902 55.036 25.5211 53.4067 25.5211C47.8295 25.5211 43.3098 20.4791 43.3098 14.2624C43.3098 8.04568 47.8295 3.00366 53.4067 3.00366C58.5727 3.00366 62.834 7.33248 63.4293 12.9161" stroke="#767676" stroke-width="5" stroke-miterlimit="10" stroke-linecap="round"/>
<path d="M87.7004 24.3274C86.3374 25.0902 84.8021 25.5211 83.1728 25.5211C77.5956 25.5211 73.0758 20.4791 73.0758 14.2624C73.0758 8.04568 77.5956 3.00366 83.1728 3.00366C88.3388 3.00366 92.6 7.33248 93.1953 12.9161" fill="white"/>
<path d="M87.7004 24.3274C86.3374 25.0902 84.8021 25.5211 83.1728 25.5211C77.5956 25.5211 73.0758 20.4791 73.0758 14.2624C73.0758 8.04568 77.5956 3.00366 83.1728 3.00366C88.3388 3.00366 92.6 7.33248 93.1953 12.9161" stroke="#767676" stroke-width="5" stroke-miterlimit="10" stroke-linecap="round"/>
<path d="M117.47 24.3274C116.107 25.0902 114.572 25.5211 112.943 25.5211C107.365 25.5211 102.846 20.4791 102.846 14.2624C102.846 8.04568 107.365 3.00366 112.943 3.00366C118.109 3.00366 122.37 7.33248 122.965 12.9161" fill="white"/>
<path d="M117.47 24.3274C116.107 25.0902 114.572 25.5211 112.943 25.5211C107.365 25.5211 102.846 20.4791 102.846 14.2624C102.846 8.04568 107.365 3.00366 112.943 3.00366C118.109 3.00366 122.37 7.33248 122.965 12.9161" stroke="#767676" stroke-width="5" stroke-miterlimit="10" stroke-linecap="round"/>
</svg>
