<svg width="515" height="100" viewBox="0 0 515 100" fill="none" xmlns="http://www.w3.org/2000/svg">
<g clip-path="url(#clip0_3688_6347)">
<g filter="url(#filter0_d_3688_6347)">
<path d="M476.595 0H35.516C16.3458 0 0.807983 16.9604 0.807983 37.888C0.807983 57.7809 14.8514 74.0778 32.7059 75.6404C34.2146 78.4374 34.5936 81.8837 33.6283 85.2729C33.0348 87.3564 32.0266 89.0974 30.9469 90.4888C30.0602 91.6375 30.8396 93.1074 32.0981 92.665C39.9278 89.9322 48.4511 86.7642 57.5106 82.5687C62.1512 80.421 66.5773 78.2162 70.8032 75.99H476.595C495.765 75.99 511.303 58.8156 511.303 37.888C511.303 16.9604 495.765 0 476.595 0Z" fill="white"/>
</g>
<path d="M58.4831 29.704C58.7333 28.6266 58.4831 28.5053 57.6965 28.5053H48.4582V25.6512H59.5199C61.8795 25.6512 62.6303 26.4789 62.2156 28.7907C61.8438 30.9812 60.7641 33.9209 59.191 36.6465C58.7333 37.4314 58.9836 37.8024 59.3125 38.3804C60.8427 40.7778 62.8734 43.2609 65.7336 45.9865L63.66 48.177C61.5434 46.2363 59.2267 43.3822 57.3605 40.8563C56.8599 40.1499 56.5739 40.1927 56.0734 40.8991C54.5003 43.0468 52.1335 46.0293 49.1947 48.6694L46.8351 46.7286C53.0488 40.8563 57.196 34.4489 58.4759 29.6897L58.4831 29.704ZM68.3077 24.5381H71.79V33.8424C71.79 34.4204 72.0831 34.7557 72.6981 34.7557H77.2958V37.567H72.6981C72.076 37.567 71.79 37.8952 71.79 38.4803V50.8456H68.3077V24.5452V24.5381Z" fill="#40403F"/>
<path d="M91.8826 30.7386C92.2544 29.1688 92.2115 28.9191 90.9745 28.9191H80.6135V26.065H92.2544C95.0716 26.065 95.944 27.2209 95.4006 30.3247C94.3209 36.0329 89.4371 43.1396 82.0579 48.6408L79.6125 46.4503C87.528 40.7422 90.9673 34.4988 91.8754 30.7386H91.8826ZM101.121 24.5381H104.603V50.8385H101.121V24.5381Z" fill="#40403F"/>
<path d="M109.902 35.7832C109.902 30.653 113.713 26.8499 119.018 26.8499C124.324 26.8499 128.092 30.653 128.092 35.7832C128.092 40.9134 124.281 44.7593 119.018 44.7593C113.756 44.7593 109.902 40.999 109.902 35.7832ZM119.018 41.948C122.086 41.948 124.61 39.5506 124.61 35.7903C124.61 32.0301 122.079 29.6683 119.018 29.6683C115.958 29.6683 113.384 32.0229 113.384 35.7903C113.384 39.5577 115.915 41.948 119.018 41.948ZM131.703 24.5381H135.185V29.4186C135.185 30.0393 135.514 30.3319 136.093 30.3319H140.441V33.0647H136.093C135.514 33.0647 135.185 33.3929 135.185 33.9708V38.309C135.185 38.887 135.514 39.2224 136.093 39.2224H140.441V41.948H136.093C135.514 41.948 135.185 42.2762 135.185 42.8613V50.8385H131.703V24.5381Z" fill="#40403F"/>
<path d="M145.868 48.8548C147.191 48.8548 148.271 49.9322 148.271 51.2522C148.271 52.5723 147.191 53.6497 145.868 53.6497C144.545 53.6497 143.466 52.5723 143.466 51.2522C143.466 49.9322 144.545 48.8548 145.868 48.8548ZM144.002 22.9683H147.77L147.355 45.2943H144.417L144.002 22.9683Z" fill="#40403F"/>
<path d="M162.736 25.6583H166.218V43.2751C166.218 44.1456 166.719 44.6379 167.584 44.6379H173.798V47.4492H166.211C163.808 47.4492 162.729 46.3718 162.729 44.0172V25.6583H162.736ZM183.036 37.8524H180.712C180.09 37.8524 179.804 38.1806 179.804 38.7657V50.6743H176.364V24.5809H179.804V34.1349C179.804 34.7129 180.097 35.0482 180.712 35.0482H183.036C183.615 35.0482 183.944 34.72 183.944 34.1349V24.1313H187.426V51.3379H183.944V38.7657C183.944 38.1877 183.615 37.8524 183.036 37.8524Z" fill="#40403F"/>
<path d="M204.873 30.7386C205.245 29.1688 205.202 28.9191 203.965 28.9191H193.604V26.065H205.245C208.062 26.065 208.935 27.2209 208.391 30.3247C207.311 36.0329 202.428 43.1396 195.048 48.6408L192.603 46.4503C200.519 40.7422 203.958 34.4988 204.866 30.7386H204.873ZM213.118 24.5381H216.6V34.0921C216.6 34.6701 216.893 35.0054 217.508 35.0054H222.106V37.8167H217.508C216.886 37.8167 216.6 38.1449 216.6 38.73V50.8456H213.118V24.5452V24.5381Z" fill="#40403F"/>
<path d="M233.503 41.0774H253.603V43.8887H245.602C245.023 43.8887 244.694 44.2169 244.694 44.7948V53.3571H241.254V44.7948C241.254 44.2169 240.925 43.8887 240.346 43.8887H233.51V41.0774H233.503ZM235.033 24.6593H251.236V37.3528H238.387C236.027 37.3528 235.033 36.3182 235.033 33.9636V24.6593ZM239.76 34.5059H246.846C247.468 34.5059 247.754 34.2133 247.754 33.5925V28.3838C247.754 27.8059 247.461 27.4705 246.846 27.4705H239.431C238.809 27.4705 238.523 27.7988 238.523 28.3838V33.2643C238.523 34.1348 238.938 34.5059 239.767 34.5059H239.76ZM254.883 49.8038H249.37V47.071H254.883C255.505 47.071 255.791 46.7784 255.791 46.1648V23.7959H259.273V53.7353H255.791V50.7171C255.791 50.1391 255.498 49.8109 254.883 49.8109V49.8038Z" fill="#40403F"/>
<path d="M273.567 39.301H300.46V42.1123H273.567V39.301ZM292.094 32.5226H277.257V29.7541H292.094C292.716 29.7541 293.002 29.4259 293.002 28.8408V26.8572C293.002 25.9867 292.501 25.4944 291.636 25.4944H277.421V22.6831H293.002C295.404 22.6831 296.484 23.7605 296.484 26.1151V35.7477H293.002V33.4287C293.002 32.8508 292.709 32.5154 292.094 32.5154V32.5226ZM277.879 46.2079H281.361V52.7794C281.361 53.6499 281.861 54.1423 282.727 54.1423H296.606V56.9535H281.354C278.951 56.9535 277.871 55.8761 277.871 53.5215V46.2008L277.879 46.2079Z" fill="#40403F"/>
<path d="M325.157 30.7386C325.529 29.1688 325.486 28.9191 324.249 28.9191H313.888V26.065H325.529C328.346 26.065 329.218 27.2209 328.675 30.3247C327.595 36.0329 322.704 43.1396 315.332 48.6408L312.887 46.4503C320.802 40.7422 324.242 34.4988 325.15 30.7386H325.157ZM329.011 35.0411H333.738C334.36 35.0411 334.646 34.7486 334.646 34.1278V24.5381H338.128V50.8385H334.646V38.8085C334.646 38.1877 334.352 37.9023 333.738 37.9023H329.011V35.0483V35.0411Z" fill="#40403F"/>
<path d="M353.451 44.4667V25.5727H356.89V32.3511C356.89 32.9291 357.219 33.2573 357.799 33.2573H363.64C364.22 33.2573 364.549 32.9291 364.549 32.3511V25.5727H367.988V47.8988H356.883C354.524 47.8988 353.444 46.8214 353.444 44.4667H353.451ZM358.263 45.0875H363.648C364.227 45.0875 364.556 44.7593 364.556 44.1742V36.9819C364.556 36.4039 364.227 36.0757 363.648 36.0757H357.806C357.227 36.0757 356.898 36.4039 356.898 36.9819V43.7247C356.898 44.5952 357.434 45.0875 358.263 45.0875ZM372.85 24.5381H376.332V33.8424C376.332 34.4204 376.626 34.7557 377.241 34.7557H381.838V37.567H377.241C376.618 37.567 376.332 37.8952 376.332 38.4803V50.8456H372.85V24.5452V24.5381Z" fill="#40403F"/>
<path d="M385.442 44.6737V35.0768H395.51C396.089 35.0768 396.418 34.7486 396.418 34.1706V29.1688C396.418 28.5909 396.089 28.2627 395.51 28.2627H385.149V25.4514H399.857V37.7311H389.789C389.21 37.7311 388.881 38.0593 388.881 38.6444V43.9815C388.881 44.852 389.382 45.3444 390.247 45.3444H401.23V48.1556H388.881C386.522 48.1556 385.442 47.0425 385.442 44.6808V44.6737ZM404.255 24.5381H407.737V33.5142C407.737 34.0921 408.03 34.4275 408.645 34.4275H413.243V37.2388H408.645C408.023 37.2388 407.737 37.567 407.737 38.1521V50.8456H404.255V24.5452V24.5381Z" fill="#40403F"/>
<path d="M416.975 44.0172V25.6583H420.458V43.2752C420.458 44.1457 420.958 44.638 421.823 44.638H432.392V47.4493H420.458C418.055 47.4493 416.975 46.3718 416.975 44.0172ZM436.453 24.5381H439.935V50.8385H436.453V24.5381Z" fill="#40403F"/>
<path d="M451.905 38.1806C452.405 37.3101 453.149 36.3612 453.771 35.6548C455.888 33.3358 457.211 31.8089 457.211 29.7397C457.211 26.9284 455.387 25.3158 452.82 25.3158C450.461 25.3158 448.923 26.8428 448.058 28.7051L445.362 27.1353C446.649 24.6095 448.887 22.4189 452.942 22.4189C457.504 22.4189 460.693 25.6869 460.693 29.7397C460.693 32.5081 459.198 34.4989 456.588 37.2245C455.43 38.4232 454.972 39.1296 454.679 40.0358C454.35 41.0704 454.35 43.7176 454.35 45.2445H450.868C450.868 42.2691 451.075 39.5363 451.905 38.1735V38.1806ZM452.606 48.8549C453.928 48.8549 455.008 49.9323 455.008 51.2523C455.008 52.5724 453.928 53.6498 452.606 53.6498C451.283 53.6498 450.203 52.5724 450.203 51.2523C450.203 49.9323 451.283 48.8549 452.606 48.8549Z" fill="#40403F"/>
</g>
<defs>
<filter id="filter0_d_3688_6347" x="0.807983" y="0" width="514.495" height="101.746" filterUnits="userSpaceOnUse" color-interpolation-filters="sRGB">
<feFlood flood-opacity="0" result="BackgroundImageFix"/>
<feColorMatrix in="SourceAlpha" type="matrix" values="0 0 0 0 0 0 0 0 0 0 0 0 0 0 0 0 0 0 127 0" result="hardAlpha"/>
<feOffset dx="2" dy="7"/>
<feGaussianBlur stdDeviation="1"/>
<feColorMatrix type="matrix" values="0 0 0 0 0.4 0 0 0 0 0.407843 0 0 0 0 0.211765 0 0 0 0.75 0"/>
<feBlend mode="normal" in2="BackgroundImageFix" result="effect1_dropShadow_3688_6347"/>
<feBlend mode="normal" in="SourceGraphic" in2="effect1_dropShadow_3688_6347" result="shape"/>
</filter>
<clipPath id="clip0_3688_6347">
<rect width="515" height="100" fill="white"/>
</clipPath>
</defs>
</svg>
