<svg width="34" height="23" viewBox="0 0 34 23" fill="none" xmlns="http://www.w3.org/2000/svg">
<path fill-rule="evenodd" clip-rule="evenodd" d="M12.4321 3.56697V16.3957H21.3124V3.56697H12.4321ZM9.45347 2.74266C9.45347 1.55296 10.4179 0.588379 11.6077 0.588379H22.1367C23.3265 0.588379 24.291 1.55284 24.291 2.74266V17.22C24.291 18.4098 23.3264 19.3743 22.1367 19.3743H11.6077C10.4179 19.3743 9.45347 18.4097 9.45347 17.22V2.74266ZM25.6033 4.43891C25.8449 3.65267 26.6781 3.21112 27.4643 3.45269L32.2605 4.92629C33.357 5.27718 34.0218 6.44999 33.6575 7.60635L29.3875 21.4701C29.0366 22.5669 27.8632 23.2317 26.7066 22.8669L24.2459 22.1065C23.4601 21.8637 23.0199 21.0298 23.2627 20.244C23.5055 19.4581 24.3394 19.0179 25.1253 19.2607L26.7927 19.7759L30.5669 7.52195L26.5895 6.29993C25.8033 6.05836 25.3617 5.22515 25.6033 4.43891ZM7.04272 6.34176C7.82911 6.10069 8.27119 5.26777 8.03012 4.48137C7.78905 3.69498 6.95613 3.2529 6.16973 3.49397L1.51484 4.92093L1.5148 4.92082L1.49743 4.92638C0.401077 5.27721 -0.263949 6.44979 0.100255 7.60627L4.36553 21.4545L4.36545 21.4545L4.37041 21.47C4.72099 22.5656 5.89197 23.2302 7.04738 22.8681L9.27031 22.1915C10.0572 21.952 10.5009 21.12 10.2615 20.3331C10.022 19.5462 9.18993 19.1025 8.40306 19.342L6.96624 19.7793L3.19112 7.52247L7.04272 6.34176Z" fill="#126056"/>
</svg>
