<svg width="122" height="122" viewBox="0 0 122 122" fill="none" xmlns="http://www.w3.org/2000/svg">
<path d="M114.306 68.8769H79.8679L104.414 93.4234C107.345 96.3544 107.345 101.483 104.414 104.414C101.483 107.345 96.3544 107.345 93.4234 104.414L68.8769 79.8679V114.306C68.8769 118.703 65.2132 122 61.1832 122C57.1532 122 53.4895 118.336 53.4895 114.306V79.8679L28.9429 104.414C26.012 107.345 20.8829 107.345 17.952 104.414C15.021 101.483 15.021 96.3544 17.952 93.4234L42.4985 68.8769H7.69369C3.2973 68.8769 0 65.2132 0 61.1832C0 57.1532 3.66366 53.4895 7.69369 53.4895H42.1321L17.952 28.9429C15.021 26.012 15.021 20.8829 17.952 17.952C20.8829 15.021 26.012 15.021 28.9429 17.952L53.4895 42.4985V7.69369C53.4895 3.2973 57.1532 0 61.1832 0C65.2132 0 68.8769 3.66366 68.8769 7.69369V42.1321L93.4234 17.5856C96.3544 14.6547 101.483 14.6547 104.414 17.5856C107.345 20.5165 107.345 25.6456 104.414 28.5766L79.8679 53.1231H114.306C118.703 53.1231 122 56.7868 122 60.8168C122 64.8468 118.336 68.5105 114.306 68.5105V68.8769Z" fill="#06564E"/>
</svg>
