<svg width="77" height="77" viewBox="0 0 77 77" fill="none" xmlns="http://www.w3.org/2000/svg">
<path d="M67.522 29.181C56.3243 29.181 47.2542 20.1248 47.2542 8.94436C47.2542 4.02496 43.223 0 38.296 0C33.3691 0 29.3379 4.02496 29.3379 8.94436C29.3379 20.1248 20.1558 29.181 9.07012 29.181C4.03117 29.181 0 33.2059 0 38.1253C0 43.0447 4.03117 47.0697 9.07012 47.0697C20.1558 47.0697 29.3379 56.1258 29.3379 67.3063C29.3379 72.3375 33.2571 76.2507 38.296 76.2507C43.335 76.2507 47.2542 72.3375 47.2542 67.3063C47.2542 56.1258 56.3243 47.0697 67.522 47.0697C72.4489 47.0697 76.4801 43.0447 76.4801 38.1253C76.4801 33.2059 72.4489 29.181 67.522 29.181ZM38.296 42.8211C36.8403 41.144 35.2727 39.5788 33.593 38.1253C35.2727 36.6719 36.8403 35.2184 38.296 33.4295C39.6398 35.2184 41.2074 36.6719 42.8871 38.1253C41.2074 39.5788 39.6398 41.144 38.296 42.8211Z" fill="#E8B1B0"/>
</svg>
