<svg width="20" height="25" viewBox="0 0 20 25" fill="none" xmlns="http://www.w3.org/2000/svg">
<path d="M16.3189 17.1304C13.8147 17.4861 11.3105 16.5416 9.43806 14.7999C8.12851 13.5733 8.12851 11.4145 9.43806 10.1879C11.3105 8.43385 13.8147 7.50163 16.3189 7.85735C18.6164 7.85735 20.4199 5.61268 19.9145 3.07363C18.8691 -1.20718 13.585 -0.888262 12.6315 3.23309C12.2639 4.17757 11.8044 4.88899 11.2531 5.52682C9.52996 7.39124 7.27845 8.56877 4.82017 8.56877C4.14242 8.56877 2.75246 8.51971 2.05173 8.96128C-0.762655 10.3964 -0.659268 14.8367 2.22404 16.1123C2.68353 16.3208 3.166 16.419 3.65995 16.4312C6.58921 16.235 9.19683 17.2163 11.2531 19.4732C11.8044 20.111 12.2639 20.8224 12.6315 21.7669C13.5735 25.8883 18.8691 26.2072 19.9145 21.9264C20.4199 19.3873 18.6164 17.1427 16.3189 17.1427V17.1304Z" fill="#126056"/>
</svg>
