<svg width="39" height="39" viewBox="0 0 39 39" fill="none" xmlns="http://www.w3.org/2000/svg">
<path d="M34.4319 14.9252C28.7218 14.9252 24.0966 10.2933 24.0966 4.57478C24.0966 2.05865 22.041 0 19.5285 0C17.0161 0 14.9605 2.05865 14.9605 4.57478C14.9605 10.2933 10.2782 14.9252 4.62518 14.9252C2.05564 14.9252 0 16.9839 0 19.5C0 22.0161 2.05564 24.0748 4.62518 24.0748C10.2782 24.0748 14.9605 28.7067 14.9605 34.4252C14.9605 36.9985 16.959 39 19.5285 39C22.0981 39 24.0966 36.9985 24.0966 34.4252C24.0966 28.7067 28.7218 24.0748 34.4319 24.0748C36.9444 24.0748 39 22.0161 39 19.5C39 16.9839 36.9444 14.9252 34.4319 14.9252ZM19.5285 21.9018C18.7862 21.044 17.9868 20.2434 17.1303 19.5C17.9868 18.7566 18.7862 18.0132 19.5285 17.0982C20.2138 18.0132 21.0132 18.7566 21.8697 19.5C21.0132 20.2434 20.2138 21.044 19.5285 21.9018Z" fill="#C8C8C8"/>
</svg>
