<svg width="112" height="19" viewBox="0 0 112 19" fill="none" xmlns="http://www.w3.org/2000/svg">
<path d="M13.44 0.26H16.06V18.78H13.44V0.26ZM14.62 7.1H17.88V9.28H14.62V7.1ZM0.9 1.94H3.08V6.2H4.18V1.94H6.32V14.5H0.9V1.94ZM3.08 8.28V12.36H4.18V8.28H3.08ZM7.04 1.94H9.18V6.2H10.3V1.94H12.48V14.5H7.04V1.94ZM9.18 8.28V12.36H10.3V8.28H9.18ZM18.8584 10.26H35.6384V12.38H18.8584V10.26ZM20.9584 16.34H34.0184V18.46H20.9584V16.34ZM20.9584 13.4H23.6184V17.26H20.9584V13.4ZM20.9184 0.679999H33.5984V5.82H23.5784V7.74H20.9384V3.94H30.9784V2.7H20.9184V0.679999ZM20.9384 7.12H33.9584V9.12H20.9384V7.12ZM50.9978 4.2H55.2978V6.34H50.9978V4.2ZM45.7778 1.4H47.9178V3.4C47.9178 7.18 46.3378 10.4 42.8378 11.68L41.4378 9.6C44.4978 8.58 45.7778 6.02 45.7778 3.4V1.4ZM46.3578 1.4H48.4778V3.42C48.4778 5.8 49.6978 8.18 52.6178 9.18L51.1978 11.22C47.8778 10.02 46.3578 6.92 46.3578 3.42V1.4ZM54.3778 0.279999H57.0378V13.94H54.3778V0.279999ZM44.7778 16.34H57.4378V18.46H44.7778V16.34ZM44.7778 12.56H47.4578V17.52H44.7778V12.56ZM66.6163 9.16H69.2763V11.74H66.6163V9.16ZM59.5962 7.6H76.3363V9.68H59.5962V7.6ZM61.6562 0.799999H74.2162V6.62H61.6562V0.799999ZM71.5963 2.86H64.2762V4.58H71.5963V2.86ZM61.5162 10.84H74.3162V15.6H64.1562V17.24H61.5362V13.76H71.6963V12.82H61.5162V10.84ZM61.5362 16.66H74.7962V18.66H61.5362V16.66ZM89.5347 0.26H92.1747V18.78H89.5347V0.26ZM91.5747 7.48H94.8547V9.7H91.5747V7.48ZM77.5747 3H88.3547V5.12H77.5747V3ZM82.9947 6.16C85.6947 6.16 87.6947 8 87.6947 10.58C87.6947 13.16 85.6947 15 82.9947 15C80.2947 15 78.2947 13.16 78.2947 10.58C78.2947 8 80.2947 6.16 82.9947 6.16ZM82.9947 8.32C81.7347 8.32 80.8347 9.16 80.8347 10.58C80.8347 12 81.7347 12.84 82.9947 12.84C84.2547 12.84 85.1547 12 85.1547 10.58C85.1547 9.16 84.2547 8.32 82.9947 8.32ZM81.6547 0.559999H84.3147V3.8H81.6547V0.559999ZM108.473 0.26H111.153V18.78H108.473V0.26ZM103.013 2.18H105.653C105.653 7.84 103.733 12.48 97.1531 15.66L95.7731 13.54C101.093 10.98 103.013 7.62 103.013 2.66V2.18ZM96.7531 2.18H104.273V4.28H96.7531V2.18Z" fill="#06564E"/>
</svg>
